<svg xmlns="http://www.w3.org/2000/svg" width="720" height="420" viewBox="0 0 720 420" role="img">
<style>
text { font-family: -apple-system, BlinkMacSystemFont, "Segoe UI", sans-serif; fill: #1f2937; }
.title { font-size: 24px; font-weight: 700; }
.subtitle { font-size: 14px; fill: #64748b; }
.label { font-size: 13px; fill: #64748b; }
.small { font-size: 12px; fill: #64748b; }
.node { font-size: 13px; font-weight: 650; }
</style>
<rect x="0" y="0" width="720" height="420" fill="#ffffff"/>
<text x="36.0" y="36.0" class="title" text-anchor="start">Precision-recall curve</text>
<text x="36.0" y="58.0" class="subtitle" text-anchor="start">Best for rare positives: can precision stay high as recall grows?</text>
<line x1="82.0" y1="345.0" x2="642.0" y2="345.0" stroke="#e5e7eb" stroke-width="1"/>
<line x1="82.0" y1="70.0" x2="82.0" y2="345.0" stroke="#e5e7eb" stroke-width="1"/>
<text x="72.0" y="349.0" class="small" text-anchor="end">0</text>
<text x="82.0" y="369.0" class="small" text-anchor="middle">0</text>
<line x1="82.0" y1="276.2" x2="642.0" y2="276.2" stroke="#e5e7eb" stroke-width="1"/>
<line x1="222.0" y1="70.0" x2="222.0" y2="345.0" stroke="#e5e7eb" stroke-width="1"/>
<text x="72.0" y="280.2" class="small" text-anchor="end">0.25</text>
<text x="222.0" y="369.0" class="small" text-anchor="middle">0.25</text>
<line x1="82.0" y1="207.5" x2="642.0" y2="207.5" stroke="#e5e7eb" stroke-width="1"/>
<line x1="362.0" y1="70.0" x2="362.0" y2="345.0" stroke="#e5e7eb" stroke-width="1"/>
<text x="72.0" y="211.5" class="small" text-anchor="end">0.5</text>
<text x="362.0" y="369.0" class="small" text-anchor="middle">0.5</text>
<line x1="82.0" y1="138.8" x2="642.0" y2="138.8" stroke="#e5e7eb" stroke-width="1"/>
<line x1="502.0" y1="70.0" x2="502.0" y2="345.0" stroke="#e5e7eb" stroke-width="1"/>
<text x="72.0" y="142.8" class="small" text-anchor="end">0.75</text>
<text x="502.0" y="369.0" class="small" text-anchor="middle">0.75</text>
<line x1="82.0" y1="70.0" x2="642.0" y2="70.0" stroke="#e5e7eb" stroke-width="1"/>
<line x1="642.0" y1="70.0" x2="642.0" y2="345.0" stroke="#e5e7eb" stroke-width="1"/>
<text x="72.0" y="74.0" class="small" text-anchor="end">1</text>
<text x="642.0" y="369.0" class="small" text-anchor="middle">1</text>
<line x1="82.0" y1="345.0" x2="642.0" y2="345.0" stroke="#1f2937" stroke-width="2"/>
<line x1="82.0" y1="70.0" x2="82.0" y2="345.0" stroke="#1f2937" stroke-width="2"/>
<line x1="82.0" y1="317.5" x2="642.0" y2="317.5" stroke="#64748b" stroke-width="2" stroke-dasharray="7 7"/>
<polyline points="93.2,70.0 166.0,81.0 278.0,97.5 390.0,136.0 462.8,193.8 541.2,262.5 642.0,312.0" fill="none" stroke="#7c3aed" stroke-width="4" stroke-linecap="round" stroke-linejoin="round"/>
<text x="418.0" y="303.0" class="small" text-anchor="start">Rare-class baseline</text>
<text x="429.2" y="174.5" class="node" text-anchor="start">The cliff</text>
<text x="362.0" y="390.0" class="label" text-anchor="middle">Recall</text>
<text x="25.0" y="207.5" class="label" text-anchor="middle">Precision</text>
</svg>
