<svg xmlns="http://www.w3.org/2000/svg" width="780" height="450" viewBox="0 0 780 450" role="img">
<style>
text { font-family: -apple-system, BlinkMacSystemFont, "Segoe UI", sans-serif; fill: #1f2937; }
.title { font-size: 24px; font-weight: 700; }
.subtitle { font-size: 14px; fill: #64748b; }
.label { font-size: 13px; fill: #64748b; }
.small { font-size: 12px; fill: #64748b; }
.node { font-size: 13px; font-weight: 650; }
</style>
<rect x="0" y="0" width="780" height="450" fill="#ffffff"/>
<text x="36.0" y="36.0" class="title" text-anchor="start">Gini split: bad vs good</text>
<text x="36.0" y="58.0" class="subtitle" text-anchor="start">A good split creates purer child nodes, so the weighted Gini is lower.</text>
<rect x="55.0" y="95.0" width="320.0" height="285.0" rx="12.0" fill="#f8fafc" stroke="#cbd5e1" stroke-width="1.5"/>
<text x="215.0" y="125.0" class="node" text-anchor="middle">Poor split</text>
<text x="215.0" y="146.0" class="small" text-anchor="middle">Both children stay mixed</text>
<text x="143.0" y="178.0" class="label" text-anchor="middle">Left child</text>
<text x="287.0" y="178.0" class="label" text-anchor="middle">Right child</text>
<rect x="90.0" y="195.0" width="110.0" height="120.0" rx="8.0" fill="#ffffff" stroke="#cbd5e1" stroke-width="1.5"/>
<rect x="230.0" y="195.0" width="110.0" height="120.0" rx="8.0" fill="#ffffff" stroke="#cbd5e1" stroke-width="1.5"/>
<circle cx="121.0" cy="215.0" r="7.0" fill="#2563eb" stroke="#ffffff" stroke-width="1.5"/>
<circle cx="145.0" cy="215.0" r="7.0" fill="#2563eb" stroke="#ffffff" stroke-width="1.5"/>
<circle cx="169.0" cy="215.0" r="7.0" fill="#2563eb" stroke="#ffffff" stroke-width="1.5"/>
<circle cx="133.0" cy="243.0" r="7.0" fill="#dc2626" stroke="#ffffff" stroke-width="1.5"/>
<circle cx="157.0" cy="243.0" r="7.0" fill="#dc2626" stroke="#ffffff" stroke-width="1.5"/>
<circle cx="261.0" cy="215.0" r="7.0" fill="#2563eb" stroke="#ffffff" stroke-width="1.5"/>
<circle cx="285.0" cy="215.0" r="7.0" fill="#2563eb" stroke="#ffffff" stroke-width="1.5"/>
<circle cx="309.0" cy="215.0" r="7.0" fill="#dc2626" stroke="#ffffff" stroke-width="1.5"/>
<circle cx="273.0" cy="243.0" r="7.0" fill="#dc2626" stroke="#ffffff" stroke-width="1.5"/>
<circle cx="297.0" cy="243.0" r="7.0" fill="#dc2626" stroke="#ffffff" stroke-width="1.5"/>
<text x="215.0" y="350.0" class="node" text-anchor="middle">Weighted Gini = 0.48</text>
<rect x="405.0" y="95.0" width="320.0" height="285.0" rx="12.0" fill="#f8fafc" stroke="#cbd5e1" stroke-width="1.5"/>
<text x="565.0" y="125.0" class="node" text-anchor="middle">Better split</text>
<text x="565.0" y="146.0" class="small" text-anchor="middle">One child is pure</text>
<text x="493.0" y="178.0" class="label" text-anchor="middle">Left child</text>
<text x="637.0" y="178.0" class="label" text-anchor="middle">Right child</text>
<rect x="440.0" y="195.0" width="110.0" height="120.0" rx="8.0" fill="#ffffff" stroke="#cbd5e1" stroke-width="1.5"/>
<rect x="580.0" y="195.0" width="110.0" height="120.0" rx="8.0" fill="#ffffff" stroke="#cbd5e1" stroke-width="1.5"/>
<circle cx="471.0" cy="215.0" r="7.0" fill="#2563eb" stroke="#ffffff" stroke-width="1.5"/>
<circle cx="495.0" cy="215.0" r="7.0" fill="#2563eb" stroke="#ffffff" stroke-width="1.5"/>
<circle cx="519.0" cy="215.0" r="7.0" fill="#2563eb" stroke="#ffffff" stroke-width="1.5"/>
<circle cx="611.0" cy="215.0" r="7.0" fill="#2563eb" stroke="#ffffff" stroke-width="1.5"/>
<circle cx="635.0" cy="215.0" r="7.0" fill="#2563eb" stroke="#ffffff" stroke-width="1.5"/>
<circle cx="659.0" cy="215.0" r="7.0" fill="#dc2626" stroke="#ffffff" stroke-width="1.5"/>
<circle cx="623.0" cy="243.0" r="7.0" fill="#dc2626" stroke="#ffffff" stroke-width="1.5"/>
<circle cx="647.0" cy="243.0" r="7.0" fill="#dc2626" stroke="#ffffff" stroke-width="1.5"/>
<circle cx="611.0" cy="271.0" r="7.0" fill="#dc2626" stroke="#ffffff" stroke-width="1.5"/>
<circle cx="635.0" cy="271.0" r="7.0" fill="#dc2626" stroke="#ffffff" stroke-width="1.5"/>
<text x="565.0" y="350.0" class="node" text-anchor="middle">Weighted Gini = 0.286</text>
</svg>
