<svg xmlns="http://www.w3.org/2000/svg" width="720" height="430" viewBox="0 0 720 430" role="img">
<style>
text { font-family: -apple-system, BlinkMacSystemFont, "Segoe UI", sans-serif; fill: #1f2937; }
.title { font-size: 24px; font-weight: 700; }
.subtitle { font-size: 14px; fill: #64748b; }
.label { font-size: 13px; fill: #64748b; }
.small { font-size: 12px; fill: #64748b; }
.node { font-size: 13px; font-weight: 650; }
</style>
<rect x="0" y="0" width="720" height="430" fill="#ffffff"/>
<text x="36.0" y="36.0" class="title" text-anchor="start">Decision tree decision surface</text>
<text x="36.0" y="58.0" class="subtitle" text-anchor="start">Trees split one feature at a time, creating box-like regions.</text>
<rect x="75.0" y="72.0" width="570.0" height="285.0" rx="0.0" fill="#dbeafe" stroke="#cbd5e1" stroke-width="1"/>
<path d="M 303.0 72.0 L 303.0 186.0 L 428.4 186.0 L 428.4 257.2 L 531.0 257.2 L 531.0 357.0 L 645.0 357.0 L 645.0 72.0 Z" fill="#fee2e2" opacity="0.82"/>
<line x1="75.0" y1="72.0" x2="75.0" y2="357.0" stroke="#e5e7eb" stroke-width="1"/>
<line x1="75.0" y1="357.0" x2="645.0" y2="357.0" stroke="#e5e7eb" stroke-width="1"/>
<line x1="189.0" y1="72.0" x2="189.0" y2="357.0" stroke="#e5e7eb" stroke-width="1"/>
<line x1="75.0" y1="300.0" x2="645.0" y2="300.0" stroke="#e5e7eb" stroke-width="1"/>
<line x1="303.0" y1="72.0" x2="303.0" y2="357.0" stroke="#e5e7eb" stroke-width="1"/>
<line x1="75.0" y1="243.0" x2="645.0" y2="243.0" stroke="#e5e7eb" stroke-width="1"/>
<line x1="417.0" y1="72.0" x2="417.0" y2="357.0" stroke="#e5e7eb" stroke-width="1"/>
<line x1="75.0" y1="186.0" x2="645.0" y2="186.0" stroke="#e5e7eb" stroke-width="1"/>
<line x1="531.0" y1="72.0" x2="531.0" y2="357.0" stroke="#e5e7eb" stroke-width="1"/>
<line x1="75.0" y1="129.0" x2="645.0" y2="129.0" stroke="#e5e7eb" stroke-width="1"/>
<line x1="645.0" y1="72.0" x2="645.0" y2="357.0" stroke="#e5e7eb" stroke-width="1"/>
<line x1="75.0" y1="72.0" x2="645.0" y2="72.0" stroke="#e5e7eb" stroke-width="1"/>
<line x1="75.0" y1="357.0" x2="645.0" y2="357.0" stroke="#1f2937" stroke-width="2"/>
<line x1="75.0" y1="72.0" x2="75.0" y2="357.0" stroke="#1f2937" stroke-width="2"/>
<polyline points="303.0,72.0 303.0,186.0 428.4,186.0 428.4,257.2 531.0,257.2 531.0,357.0" fill="none" stroke="#ea580c" stroke-width="5" stroke-linecap="round" stroke-linejoin="round"/>
<circle cx="132.0" cy="129.0" r="7.0" fill="#2563eb" stroke="#ffffff" stroke-width="1.5"/>
<circle cx="189.0" cy="168.9" r="7.0" fill="#2563eb" stroke="#ffffff" stroke-width="1.5"/>
<circle cx="257.4" cy="151.8" r="7.0" fill="#2563eb" stroke="#ffffff" stroke-width="1.5"/>
<circle cx="211.8" cy="223.1" r="7.0" fill="#2563eb" stroke="#ffffff" stroke-width="1.5"/>
<circle cx="360.0" cy="143.2" r="7.0" fill="#2563eb" stroke="#ffffff" stroke-width="1.5"/>
<circle cx="388.5" cy="163.2" r="7.0" fill="#2563eb" stroke="#ffffff" stroke-width="1.5"/>
<circle cx="462.6" cy="214.5" r="7.0" fill="#dc2626" stroke="#ffffff" stroke-width="1.5"/>
<circle cx="508.2" cy="240.2" r="7.0" fill="#dc2626" stroke="#ffffff" stroke-width="1.5"/>
<circle cx="553.8" cy="277.2" r="7.0" fill="#dc2626" stroke="#ffffff" stroke-width="1.5"/>
<circle cx="588.0" cy="308.6" r="7.0" fill="#dc2626" stroke="#ffffff" stroke-width="1.5"/>
<circle cx="474.0" cy="288.6" r="7.0" fill="#dc2626" stroke="#ffffff" stroke-width="1.5"/>
<circle cx="576.6" cy="208.8" r="7.0" fill="#dc2626" stroke="#ffffff" stroke-width="1.5"/>
<text x="360.0" y="400.0" class="label" text-anchor="middle">feature x1</text>
<text x="24.0" y="214.5" class="label" text-anchor="middle">feature x2</text>
</svg>
