<svg xmlns="http://www.w3.org/2000/svg" width="800" height="400" viewBox="0 0 800 400" role="img">
<style>
text { font-family: -apple-system, BlinkMacSystemFont, "Segoe UI", sans-serif; fill: #1f2937; }
.title { font-size: 24px; font-weight: 700; }
.subtitle { font-size: 14px; fill: #64748b; }
.label { font-size: 13px; fill: #64748b; }
.small { font-size: 12px; fill: #64748b; }
.node { font-size: 13px; font-weight: 650; }
</style>
<rect x="0" y="0" width="800" height="400" fill="#ffffff"/>
<text x="36.0" y="36.0" class="title" text-anchor="start">Hard vs soft clustering</text>
<text x="36.0" y="58.0" class="subtitle" text-anchor="start">K-Means force une seule classe ; GMM donne des probabilités d'appartenance.</text>
<rect x="45.0" y="95.0" width="320.0" height="250.0" rx="12.0" fill="#f8fafc" stroke="#cbd5e1" stroke-width="1.5"/>
<text x="205.0" y="125.0" class="node" text-anchor="middle">Hard clustering</text>
<line x1="205.0" y1="155.0" x2="205.0" y2="310.0" stroke="#64748b" stroke-width="2" stroke-dasharray="6 6"/>
<circle cx="144.3" cy="234.4" r="5.0" fill="#2563eb" stroke="#ffffff" stroke-width="1.5"/>
<circle cx="101.5" cy="241.4" r="5.0" fill="#2563eb" stroke="#ffffff" stroke-width="1.5"/>
<circle cx="148.5" cy="190.8" r="5.0" fill="#2563eb" stroke="#ffffff" stroke-width="1.5"/>
<circle cx="138.9" cy="252.0" r="5.0" fill="#2563eb" stroke="#ffffff" stroke-width="1.5"/>
<circle cx="92.5" cy="212.8" r="5.0" fill="#2563eb" stroke="#ffffff" stroke-width="1.5"/>
<circle cx="149.9" cy="224.9" r="5.0" fill="#2563eb" stroke="#ffffff" stroke-width="1.5"/>
<circle cx="111.0" cy="258.4" r="5.0" fill="#2563eb" stroke="#ffffff" stroke-width="1.5"/>
<circle cx="126.8" cy="216.4" r="5.0" fill="#2563eb" stroke="#ffffff" stroke-width="1.5"/>
<circle cx="155.9" cy="246.3" r="5.0" fill="#2563eb" stroke="#ffffff" stroke-width="1.5"/>
<circle cx="82.7" cy="236.0" r="5.0" fill="#2563eb" stroke="#ffffff" stroke-width="1.5"/>
<circle cx="146.6" cy="211.6" r="5.0" fill="#2563eb" stroke="#ffffff" stroke-width="1.5"/>
<circle cx="133.0" cy="268.2" r="5.0" fill="#2563eb" stroke="#ffffff" stroke-width="1.5"/>
<circle cx="294.0" cy="239.8" r="5.0" fill="#dc2626" stroke="#ffffff" stroke-width="1.5"/>
<circle cx="246.3" cy="232.7" r="5.0" fill="#dc2626" stroke="#ffffff" stroke-width="1.5"/>
<circle cx="288.4" cy="221.6" r="5.0" fill="#dc2626" stroke="#ffffff" stroke-width="1.5"/>
<circle cx="280.5" cy="255.8" r="5.0" fill="#dc2626" stroke="#ffffff" stroke-width="1.5"/>
<circle cx="248.9" cy="201.0" r="5.0" fill="#dc2626" stroke="#ffffff" stroke-width="1.5"/>
<circle cx="303.3" cy="231.1" r="5.0" fill="#dc2626" stroke="#ffffff" stroke-width="1.5"/>
<circle cx="249.7" cy="252.9" r="5.0" fill="#dc2626" stroke="#ffffff" stroke-width="1.5"/>
<circle cx="282.2" cy="213.8" r="5.0" fill="#dc2626" stroke="#ffffff" stroke-width="1.5"/>
<circle cx="300.1" cy="254.9" r="5.0" fill="#dc2626" stroke="#ffffff" stroke-width="1.5"/>
<circle cx="267.4" cy="227.8" r="5.0" fill="#dc2626" stroke="#ffffff" stroke-width="1.5"/>
<circle cx="304.6" cy="216.2" r="5.0" fill="#dc2626" stroke="#ffffff" stroke-width="1.5"/>
<circle cx="268.3" cy="269.2" r="5.0" fill="#dc2626" stroke="#ffffff" stroke-width="1.5"/>
<text x="205.0" y="330.0" class="small" text-anchor="middle">Chaque point appartient à 1 cluster</text>
<rect x="435.0" y="95.0" width="320.0" height="250.0" rx="12.0" fill="#f8fafc" stroke="#cbd5e1" stroke-width="1.5"/>
<text x="595.0" y="125.0" class="node" text-anchor="middle">Soft clustering</text>
<ellipse cx="555.0" cy="225.0" rx="90.0" ry="55.0" fill="#dbeafe" stroke="#2563eb" stroke-width="2" opacity="0.75" transform="rotate(-15.0 555.0 225.0)"/>
<ellipse cx="640.0" cy="225.0" rx="90.0" ry="55.0" fill="#fee2e2" stroke="#dc2626" stroke-width="2" opacity="0.75" transform="rotate(15.0 640.0 225.0)"/>
<circle cx="567.2" cy="237.0" r="5.0" fill="#2563eb" stroke="#ffffff" stroke-width="1.5"/>
<circle cx="516.0" cy="218.8" r="5.0" fill="#2563eb" stroke="#ffffff" stroke-width="1.5"/>
<circle cx="569.6" cy="219.9" r="5.0" fill="#2563eb" stroke="#ffffff" stroke-width="1.5"/>
<circle cx="544.4" cy="245.8" r="5.0" fill="#2563eb" stroke="#ffffff" stroke-width="1.5"/>
<circle cx="533.0" cy="194.9" r="5.0" fill="#2563eb" stroke="#ffffff" stroke-width="1.5"/>
<circle cx="581.5" cy="231.8" r="5.0" fill="#2563eb" stroke="#ffffff" stroke-width="1.5"/>
<circle cx="511.7" cy="235.6" r="5.0" fill="#2563eb" stroke="#ffffff" stroke-width="1.5"/>
<circle cx="565.0" cy="211.9" r="5.0" fill="#2563eb" stroke="#ffffff" stroke-width="1.5"/>
<circle cx="566.9" cy="249.7" r="5.0" fill="#2563eb" stroke="#ffffff" stroke-width="1.5"/>
<circle cx="540.2" cy="219.6" r="5.0" fill="#2563eb" stroke="#ffffff" stroke-width="1.5"/>
<circle cx="646.1" cy="240.6" r="5.0" fill="#dc2626" stroke="#ffffff" stroke-width="1.5"/>
<circle cx="603.9" cy="210.1" r="5.0" fill="#dc2626" stroke="#ffffff" stroke-width="1.5"/>
<circle cx="659.2" cy="222.8" r="5.0" fill="#dc2626" stroke="#ffffff" stroke-width="1.5"/>
<circle cx="617.6" cy="243.9" r="5.0" fill="#dc2626" stroke="#ffffff" stroke-width="1.5"/>
<circle cx="638.6" cy="216.3" r="5.0" fill="#dc2626" stroke="#ffffff" stroke-width="1.5"/>
<circle cx="663.8" cy="238.1" r="5.0" fill="#dc2626" stroke="#ffffff" stroke-width="1.5"/>
<circle cx="590.8" cy="226.1" r="5.0" fill="#dc2626" stroke="#ffffff" stroke-width="1.5"/>
<circle cx="658.2" cy="213.4" r="5.0" fill="#dc2626" stroke="#ffffff" stroke-width="1.5"/>
<circle cx="638.5" cy="252.6" r="5.0" fill="#dc2626" stroke="#ffffff" stroke-width="1.5"/>
<circle cx="626.9" cy="215.4" r="5.0" fill="#dc2626" stroke="#ffffff" stroke-width="1.5"/>
<circle cx="600.0" cy="225.0" r="8.0" fill="#ea580c" stroke="#ffffff" stroke-width="1.5"/>
<text x="600.0" y="267.0" class="small" text-anchor="middle">ex : 55% bleu, 45% rouge</text>
<text x="595.0" y="330.0" class="small" text-anchor="middle">Un point peut avoir plusieurs probabilités</text>
</svg>
