<svg xmlns="http://www.w3.org/2000/svg" width="800" height="370" viewBox="0 0 800 370" role="img">
<style>
text { font-family: -apple-system, BlinkMacSystemFont, "Segoe UI", sans-serif; fill: #1f2937; }
.title { font-size: 24px; font-weight: 700; }
.subtitle { font-size: 14px; fill: #64748b; }
.label { font-size: 13px; fill: #64748b; }
.small { font-size: 12px; fill: #64748b; }
.node { font-size: 13px; font-weight: 650; }
</style>
<rect x="0" y="0" width="800" height="370" fill="#ffffff"/>
<defs>
<marker id="arrow" viewBox="0 0 10 10" refX="9" refY="5" markerWidth="7" markerHeight="7" orient="auto-start-reverse">
<path d="M 0 0 L 10 5 L 0 10 z" fill="#64748b"/>
</marker>
</defs>
<text x="36.0" y="36.0" class="title" text-anchor="start">K-Means : assigner puis mettre à jour</text>
<text x="36.0" y="58.0" class="subtitle" text-anchor="start">L'algorithme alterne entre affectation aux centroïdes et recalcul des centres.</text>
<rect x="45.0" y="105.0" width="150.0" height="205.0" rx="10.0" fill="#f8fafc" stroke="#cbd5e1" stroke-width="1.4"/>
<text x="120.0" y="132.0" class="node" text-anchor="middle">1. Initialiser K centres</text>
<rect x="235.0" y="105.0" width="150.0" height="205.0" rx="10.0" fill="#f8fafc" stroke="#cbd5e1" stroke-width="1.4"/>
<text x="310.0" y="132.0" class="node" text-anchor="middle">2. Assigner au plus proche</text>
<rect x="425.0" y="105.0" width="150.0" height="205.0" rx="10.0" fill="#f8fafc" stroke="#cbd5e1" stroke-width="1.4"/>
<text x="500.0" y="132.0" class="node" text-anchor="middle">3. Recalculer les centres</text>
<rect x="615.0" y="105.0" width="150.0" height="205.0" rx="10.0" fill="#f8fafc" stroke="#cbd5e1" stroke-width="1.4"/>
<text x="690.0" y="132.0" class="node" text-anchor="middle">4. Répéter</text>
<line x1="195.0" y1="205.0" x2="230.0" y2="205.0" stroke="#64748b" stroke-width="2" marker-end="url(#arrow)"/>
<line x1="385.0" y1="205.0" x2="420.0" y2="205.0" stroke="#64748b" stroke-width="2" marker-end="url(#arrow)"/>
<line x1="575.0" y1="205.0" x2="610.0" y2="205.0" stroke="#64748b" stroke-width="2" marker-end="url(#arrow)"/>
<circle cx="90.0" cy="205.0" r="4.8" fill="#2563eb" stroke="#ffffff" stroke-width="1.5"/>
<circle cx="280.0" cy="205.0" r="4.8" fill="#2563eb" stroke="#ffffff" stroke-width="1.5"/>
<circle cx="470.0" cy="205.0" r="4.8" fill="#2563eb" stroke="#ffffff" stroke-width="1.5"/>
<circle cx="660.0" cy="205.0" r="4.8" fill="#2563eb" stroke="#ffffff" stroke-width="1.5"/>
<circle cx="110.0" cy="235.0" r="4.8" fill="#2563eb" stroke="#ffffff" stroke-width="1.5"/>
<circle cx="300.0" cy="235.0" r="4.8" fill="#2563eb" stroke="#ffffff" stroke-width="1.5"/>
<circle cx="490.0" cy="235.0" r="4.8" fill="#2563eb" stroke="#ffffff" stroke-width="1.5"/>
<circle cx="680.0" cy="235.0" r="4.8" fill="#2563eb" stroke="#ffffff" stroke-width="1.5"/>
<circle cx="130.0" cy="190.0" r="4.8" fill="#2563eb" stroke="#ffffff" stroke-width="1.5"/>
<circle cx="320.0" cy="190.0" r="4.8" fill="#dc2626" stroke="#ffffff" stroke-width="1.5"/>
<circle cx="510.0" cy="190.0" r="4.8" fill="#dc2626" stroke="#ffffff" stroke-width="1.5"/>
<circle cx="700.0" cy="190.0" r="4.8" fill="#dc2626" stroke="#ffffff" stroke-width="1.5"/>
<circle cx="105.0" cy="170.0" r="4.8" fill="#2563eb" stroke="#ffffff" stroke-width="1.5"/>
<circle cx="295.0" cy="170.0" r="4.8" fill="#2563eb" stroke="#ffffff" stroke-width="1.5"/>
<circle cx="485.0" cy="170.0" r="4.8" fill="#2563eb" stroke="#ffffff" stroke-width="1.5"/>
<circle cx="675.0" cy="170.0" r="4.8" fill="#2563eb" stroke="#ffffff" stroke-width="1.5"/>
<circle cx="145.0" cy="220.0" r="4.8" fill="#2563eb" stroke="#ffffff" stroke-width="1.5"/>
<circle cx="335.0" cy="220.0" r="4.8" fill="#dc2626" stroke="#ffffff" stroke-width="1.5"/>
<circle cx="525.0" cy="220.0" r="4.8" fill="#dc2626" stroke="#ffffff" stroke-width="1.5"/>
<circle cx="715.0" cy="220.0" r="4.8" fill="#dc2626" stroke="#ffffff" stroke-width="1.5"/>
<circle cx="105.0" cy="265.0" r="4.8" fill="#2563eb" stroke="#ffffff" stroke-width="1.5"/>
<circle cx="295.0" cy="265.0" r="4.8" fill="#2563eb" stroke="#ffffff" stroke-width="1.5"/>
<circle cx="485.0" cy="265.0" r="4.8" fill="#2563eb" stroke="#ffffff" stroke-width="1.5"/>
<circle cx="675.0" cy="265.0" r="4.8" fill="#2563eb" stroke="#ffffff" stroke-width="1.5"/>
<circle cx="145.0" cy="255.0" r="4.8" fill="#2563eb" stroke="#ffffff" stroke-width="1.5"/>
<circle cx="335.0" cy="255.0" r="4.8" fill="#dc2626" stroke="#ffffff" stroke-width="1.5"/>
<circle cx="525.0" cy="255.0" r="4.8" fill="#dc2626" stroke="#ffffff" stroke-width="1.5"/>
<circle cx="715.0" cy="255.0" r="4.8" fill="#dc2626" stroke="#ffffff" stroke-width="1.5"/>
<text x="105.0" y="210.0" class="title" text-anchor="middle">×</text>
<text x="145.0" y="230.0" class="title" text-anchor="middle">×</text>
<text x="295.0" y="210.0" class="title" text-anchor="middle">×</text>
<text x="335.0" y="230.0" class="title" text-anchor="middle">×</text>
<line x1="310.0" y1="160.0" x2="310.0" y2="285.0" stroke="#64748b" stroke-width="1.5" stroke-dasharray="6 6"/>
<text x="485.0" y="205.0" class="title" text-anchor="middle">×</text>
<text x="550.0" y="235.0" class="title" text-anchor="middle">×</text>
<text x="675.0" y="205.0" class="title" text-anchor="middle">×</text>
<text x="740.0" y="235.0" class="title" text-anchor="middle">×</text>
<text x="690.0" y="285.0" class="small" text-anchor="middle">jusqu'à convergence</text>
</svg>
