<svg xmlns="http://www.w3.org/2000/svg" width="720" height="420" viewBox="0 0 720 420" role="img">
<style>
text { font-family: -apple-system, BlinkMacSystemFont, "Segoe UI", sans-serif; fill: #1f2937; }
.title { font-size: 24px; font-weight: 700; }
.subtitle { font-size: 14px; fill: #64748b; }
.label { font-size: 13px; fill: #64748b; }
.small { font-size: 12px; fill: #64748b; }
.node { font-size: 13px; font-weight: 650; }
</style>
<rect x="0" y="0" width="720" height="420" fill="#ffffff"/>
<text x="36.0" y="36.0" class="title" text-anchor="start">Elbow plot : choisir K</text>
<text x="36.0" y="58.0" class="subtitle" text-anchor="start">On cherche le point où l'inertie cesse de chuter fortement.</text>
<line x1="85.0" y1="75.0" x2="650.0" y2="75.0" stroke="#e5e7eb" stroke-width="1"/>
<line x1="85.0" y1="127.0" x2="650.0" y2="127.0" stroke="#e5e7eb" stroke-width="1"/>
<line x1="85.0" y1="179.0" x2="650.0" y2="179.0" stroke="#e5e7eb" stroke-width="1"/>
<line x1="85.0" y1="231.0" x2="650.0" y2="231.0" stroke="#e5e7eb" stroke-width="1"/>
<line x1="85.0" y1="283.0" x2="650.0" y2="283.0" stroke="#e5e7eb" stroke-width="1"/>
<line x1="85.0" y1="335.0" x2="650.0" y2="335.0" stroke="#e5e7eb" stroke-width="1"/>
<line x1="85.0" y1="335.0" x2="650.0" y2="335.0" stroke="#1f2937" stroke-width="2"/>
<line x1="85.0" y1="75.0" x2="85.0" y2="335.0" stroke="#1f2937" stroke-width="2"/>
<circle cx="85.0" cy="91.2" r="5.0" fill="#2563eb" stroke="#ffffff" stroke-width="1.5"/>
<text x="85.0" y="359.0" class="small" text-anchor="middle">1</text>
<circle cx="165.7" cy="209.1" r="5.0" fill="#2563eb" stroke="#ffffff" stroke-width="1.5"/>
<text x="165.7" y="359.0" class="small" text-anchor="middle">2</text>
<circle cx="246.4" cy="268.4" r="5.0" fill="#2563eb" stroke="#ffffff" stroke-width="1.5"/>
<text x="246.4" y="359.0" class="small" text-anchor="middle">3</text>
<circle cx="327.1" cy="284.6" r="5.0" fill="#2563eb" stroke="#ffffff" stroke-width="1.5"/>
<text x="327.1" y="359.0" class="small" text-anchor="middle">4</text>
<circle cx="407.9" cy="292.8" r="5.0" fill="#2563eb" stroke="#ffffff" stroke-width="1.5"/>
<text x="407.9" y="359.0" class="small" text-anchor="middle">5</text>
<circle cx="488.6" cy="297.6" r="5.0" fill="#2563eb" stroke="#ffffff" stroke-width="1.5"/>
<text x="488.6" y="359.0" class="small" text-anchor="middle">6</text>
<circle cx="569.3" cy="300.9" r="5.0" fill="#2563eb" stroke="#ffffff" stroke-width="1.5"/>
<text x="569.3" y="359.0" class="small" text-anchor="middle">7</text>
<circle cx="650.0" cy="303.3" r="5.0" fill="#2563eb" stroke="#ffffff" stroke-width="1.5"/>
<text x="650.0" y="359.0" class="small" text-anchor="middle">8</text>
<polyline points="85.0,91.2 165.7,209.1 246.4,268.4 327.1,284.6 407.9,292.8 488.6,297.6 569.3,300.9 650.0,303.3" fill="none" stroke="#2563eb" stroke-width="4" stroke-linecap="round" stroke-linejoin="round"/>
<circle cx="246.4" cy="268.4" r="10.0" fill="#ea580c" stroke="#ffffff" stroke-width="2"/>
<text x="264.4" y="258.4" class="node" text-anchor="start">coude : K ≈ 3</text>
<text x="367.5" y="390.0" class="label" text-anchor="middle">nombre de clusters K</text>
<text x="25.0" y="205.0" class="label" text-anchor="middle">inertie / WCSS</text>
</svg>
