<svg xmlns="http://www.w3.org/2000/svg" width="800" height="400" viewBox="0 0 800 400" role="img">
<style>
text { font-family: -apple-system, BlinkMacSystemFont, "Segoe UI", sans-serif; fill: #1f2937; }
.title { font-size: 24px; font-weight: 700; }
.subtitle { font-size: 14px; fill: #64748b; }
.label { font-size: 13px; fill: #64748b; }
.small { font-size: 12px; fill: #64748b; }
.node { font-size: 13px; font-weight: 650; }
</style>
<rect x="0" y="0" width="800" height="400" fill="#ffffff"/>
<text x="36.0" y="36.0" class="title" text-anchor="start">Biais de K-Means</text>
<text x="36.0" y="58.0" class="subtitle" text-anchor="start">K-Means préfère les clusters sphériques, convexes et de taille comparable.</text>
<rect x="45.0" y="95.0" width="210.0" height="250.0" rx="12.0" fill="#dcfce7" stroke="#16a34a" stroke-width="2"/>
<text x="150.0" y="125.0" class="node" text-anchor="middle">Cas favorable</text>
<circle cx="87.1" cy="221.0" r="5.0" fill="#2563eb" stroke="#ffffff" stroke-width="1.5"/>
<circle cx="118.7" cy="219.3" r="5.0" fill="#2563eb" stroke="#ffffff" stroke-width="1.5"/>
<circle cx="105.1" cy="244.5" r="5.0" fill="#2563eb" stroke="#ffffff" stroke-width="1.5"/>
<circle cx="95.6" cy="199.0" r="5.0" fill="#2563eb" stroke="#ffffff" stroke-width="1.5"/>
<circle cx="126.1" cy="230.2" r="5.0" fill="#2563eb" stroke="#ffffff" stroke-width="1.5"/>
<circle cx="85.9" cy="236.3" r="5.0" fill="#2563eb" stroke="#ffffff" stroke-width="1.5"/>
<circle cx="115.2" cy="212.2" r="5.0" fill="#2563eb" stroke="#ffffff" stroke-width="1.5"/>
<circle cx="118.4" cy="246.9" r="5.0" fill="#2563eb" stroke="#ffffff" stroke-width="1.5"/>
<circle cx="100.4" cy="220.3" r="5.0" fill="#2563eb" stroke="#ffffff" stroke-width="1.5"/>
<circle cx="129.4" cy="219.1" r="5.0" fill="#2563eb" stroke="#ffffff" stroke-width="1.5"/>
<circle cx="106.2" cy="231.5" r="5.0" fill="#2563eb" stroke="#ffffff" stroke-width="1.5"/>
<circle cx="168.3" cy="213.0" r="5.0" fill="#dc2626" stroke="#ffffff" stroke-width="1.5"/>
<circle cx="201.6" cy="222.1" r="5.0" fill="#dc2626" stroke="#ffffff" stroke-width="1.5"/>
<circle cx="178.2" cy="243.2" r="5.0" fill="#dc2626" stroke="#ffffff" stroke-width="1.5"/>
<circle cx="188.5" cy="216.3" r="5.0" fill="#dc2626" stroke="#ffffff" stroke-width="1.5"/>
<circle cx="204.8" cy="236.1" r="5.0" fill="#dc2626" stroke="#ffffff" stroke-width="1.5"/>
<circle cx="162.0" cy="227.9" r="5.0" fill="#dc2626" stroke="#ffffff" stroke-width="1.5"/>
<circle cx="200.1" cy="213.4" r="5.0" fill="#dc2626" stroke="#ffffff" stroke-width="1.5"/>
<circle cx="190.9" cy="250.0" r="5.0" fill="#dc2626" stroke="#ffffff" stroke-width="1.5"/>
<circle cx="181.4" cy="216.4" r="5.0" fill="#dc2626" stroke="#ffffff" stroke-width="1.5"/>
<circle cx="211.9" cy="225.8" r="5.0" fill="#dc2626" stroke="#ffffff" stroke-width="1.5"/>
<circle cx="183.2" cy="231.0" r="5.0" fill="#dc2626" stroke="#ffffff" stroke-width="1.5"/>
<rect x="295.0" y="95.0" width="210.0" height="250.0" rx="12.0" fill="#ffedd5" stroke="#ea580c" stroke-width="2"/>
<text x="400.0" y="125.0" class="node" text-anchor="middle">Tailles différentes</text>
<circle cx="325.8" cy="191.0" r="5.0" fill="#2563eb" stroke="#ffffff" stroke-width="1.5"/>
<circle cx="386.1" cy="227.1" r="5.0" fill="#2563eb" stroke="#ffffff" stroke-width="1.5"/>
<circle cx="324.6" cy="249.8" r="5.0" fill="#2563eb" stroke="#ffffff" stroke-width="1.5"/>
<circle cx="363.2" cy="207.2" r="5.0" fill="#2563eb" stroke="#ffffff" stroke-width="1.5"/>
<circle cx="381.7" cy="253.9" r="5.0" fill="#2563eb" stroke="#ffffff" stroke-width="1.5"/>
<circle cx="303.9" cy="213.4" r="5.0" fill="#2563eb" stroke="#ffffff" stroke-width="1.5"/>
<circle cx="388.4" cy="210.3" r="5.0" fill="#2563eb" stroke="#ffffff" stroke-width="1.5"/>
<circle cx="345.0" cy="269.1" r="5.0" fill="#2563eb" stroke="#ffffff" stroke-width="1.5"/>
<circle cx="348.3" cy="203.5" r="5.0" fill="#2563eb" stroke="#ffffff" stroke-width="1.5"/>
<circle cx="402.4" cy="239.6" r="5.0" fill="#2563eb" stroke="#ffffff" stroke-width="1.5"/>
<circle cx="340.9" cy="231.9" r="5.0" fill="#2563eb" stroke="#ffffff" stroke-width="1.5"/>
<circle cx="376.6" cy="193.1" r="5.0" fill="#2563eb" stroke="#ffffff" stroke-width="1.5"/>
<circle cx="364.5" cy="237.4" r="5.0" fill="#2563eb" stroke="#ffffff" stroke-width="1.5"/>
<circle cx="331.0" cy="210.6" r="5.0" fill="#2563eb" stroke="#ffffff" stroke-width="1.5"/>
<circle cx="410.4" cy="213.7" r="5.0" fill="#2563eb" stroke="#ffffff" stroke-width="1.5"/>
<circle cx="345.2" cy="245.4" r="5.0" fill="#2563eb" stroke="#ffffff" stroke-width="1.5"/>
<circle cx="352.0" cy="184.5" r="5.0" fill="#2563eb" stroke="#ffffff" stroke-width="1.5"/>
<circle cx="376.8" cy="236.3" r="5.0" fill="#2563eb" stroke="#ffffff" stroke-width="1.5"/>
<circle cx="320.5" cy="228.7" r="5.0" fill="#2563eb" stroke="#ffffff" stroke-width="1.5"/>
<circle cx="369.8" cy="214.9" r="5.0" fill="#2563eb" stroke="#ffffff" stroke-width="1.5"/>
<circle cx="448.4" cy="209.5" r="5.0" fill="#dc2626" stroke="#ffffff" stroke-width="1.5"/>
<circle cx="463.3" cy="228.7" r="5.0" fill="#dc2626" stroke="#ffffff" stroke-width="1.5"/>
<circle cx="440.9" cy="229.8" r="5.0" fill="#dc2626" stroke="#ffffff" stroke-width="1.5"/>
<circle cx="458.4" cy="218.6" r="5.0" fill="#dc2626" stroke="#ffffff" stroke-width="1.5"/>
<circle cx="458.4" cy="237.6" r="5.0" fill="#dc2626" stroke="#ffffff" stroke-width="1.5"/>
<circle cx="450.5" cy="222.2" r="5.0" fill="#dc2626" stroke="#ffffff" stroke-width="1.5"/>
<circle cx="465.9" cy="222.9" r="5.0" fill="#dc2626" stroke="#ffffff" stroke-width="1.5"/>
<rect x="545.0" y="95.0" width="210.0" height="250.0" rx="12.0" fill="#fee2e2" stroke="#dc2626" stroke-width="2"/>
<text x="650.0" y="125.0" class="node" text-anchor="middle">Formes non convexes</text>
<circle cx="655.0" cy="235.0" r="4.5" fill="#2563eb" stroke="#ffffff" stroke-width="1.5"/>
<circle cx="645.0" cy="235.0" r="4.5" fill="#dc2626" stroke="#ffffff" stroke-width="1.5"/>
<circle cx="654.4" cy="242.4" r="4.5" fill="#2563eb" stroke="#ffffff" stroke-width="1.5"/>
<circle cx="645.6" cy="227.6" r="4.5" fill="#dc2626" stroke="#ffffff" stroke-width="1.5"/>
<circle cx="652.6" cy="249.6" r="4.5" fill="#2563eb" stroke="#ffffff" stroke-width="1.5"/>
<circle cx="647.4" cy="220.4" r="4.5" fill="#dc2626" stroke="#ffffff" stroke-width="1.5"/>
<circle cx="649.6" cy="256.4" r="4.5" fill="#2563eb" stroke="#ffffff" stroke-width="1.5"/>
<circle cx="650.4" cy="213.6" r="4.5" fill="#dc2626" stroke="#ffffff" stroke-width="1.5"/>
<circle cx="645.5" cy="262.6" r="4.5" fill="#2563eb" stroke="#ffffff" stroke-width="1.5"/>
<circle cx="654.5" cy="207.4" r="4.5" fill="#dc2626" stroke="#ffffff" stroke-width="1.5"/>
<circle cx="640.5" cy="268.1" r="4.5" fill="#2563eb" stroke="#ffffff" stroke-width="1.5"/>
<circle cx="659.5" cy="201.9" r="4.5" fill="#dc2626" stroke="#ffffff" stroke-width="1.5"/>
<circle cx="634.6" cy="272.7" r="4.5" fill="#2563eb" stroke="#ffffff" stroke-width="1.5"/>
<circle cx="665.4" cy="197.3" r="4.5" fill="#dc2626" stroke="#ffffff" stroke-width="1.5"/>
<circle cx="628.1" cy="276.2" r="4.5" fill="#2563eb" stroke="#ffffff" stroke-width="1.5"/>
<circle cx="671.9" cy="193.8" r="4.5" fill="#dc2626" stroke="#ffffff" stroke-width="1.5"/>
<circle cx="621.0" cy="278.6" r="4.5" fill="#2563eb" stroke="#ffffff" stroke-width="1.5"/>
<circle cx="679.0" cy="191.4" r="4.5" fill="#dc2626" stroke="#ffffff" stroke-width="1.5"/>
<circle cx="613.7" cy="279.8" r="4.5" fill="#2563eb" stroke="#ffffff" stroke-width="1.5"/>
<circle cx="686.3" cy="190.2" r="4.5" fill="#dc2626" stroke="#ffffff" stroke-width="1.5"/>
<circle cx="606.3" cy="279.8" r="4.5" fill="#2563eb" stroke="#ffffff" stroke-width="1.5"/>
<circle cx="693.7" cy="190.2" r="4.5" fill="#dc2626" stroke="#ffffff" stroke-width="1.5"/>
<circle cx="599.0" cy="278.6" r="4.5" fill="#2563eb" stroke="#ffffff" stroke-width="1.5"/>
<circle cx="701.0" cy="191.4" r="4.5" fill="#dc2626" stroke="#ffffff" stroke-width="1.5"/>
<circle cx="591.9" cy="276.2" r="4.5" fill="#2563eb" stroke="#ffffff" stroke-width="1.5"/>
<circle cx="708.1" cy="193.8" r="4.5" fill="#dc2626" stroke="#ffffff" stroke-width="1.5"/>
<circle cx="585.4" cy="272.7" r="4.5" fill="#2563eb" stroke="#ffffff" stroke-width="1.5"/>
<circle cx="714.6" cy="197.3" r="4.5" fill="#dc2626" stroke="#ffffff" stroke-width="1.5"/>
<circle cx="579.5" cy="268.1" r="4.5" fill="#2563eb" stroke="#ffffff" stroke-width="1.5"/>
<circle cx="720.5" cy="201.9" r="4.5" fill="#dc2626" stroke="#ffffff" stroke-width="1.5"/>
<circle cx="574.5" cy="262.6" r="4.5" fill="#2563eb" stroke="#ffffff" stroke-width="1.5"/>
<circle cx="725.5" cy="207.4" r="4.5" fill="#dc2626" stroke="#ffffff" stroke-width="1.5"/>
<circle cx="570.4" cy="256.4" r="4.5" fill="#2563eb" stroke="#ffffff" stroke-width="1.5"/>
<circle cx="729.6" cy="213.6" r="4.5" fill="#dc2626" stroke="#ffffff" stroke-width="1.5"/>
<circle cx="567.4" cy="249.6" r="4.5" fill="#2563eb" stroke="#ffffff" stroke-width="1.5"/>
<circle cx="732.6" cy="220.4" r="4.5" fill="#dc2626" stroke="#ffffff" stroke-width="1.5"/>
<circle cx="565.6" cy="242.4" r="4.5" fill="#2563eb" stroke="#ffffff" stroke-width="1.5"/>
<circle cx="734.4" cy="227.6" r="4.5" fill="#dc2626" stroke="#ffffff" stroke-width="1.5"/>
<circle cx="565.0" cy="235.0" r="4.5" fill="#2563eb" stroke="#ffffff" stroke-width="1.5"/>
<circle cx="735.0" cy="235.0" r="4.5" fill="#dc2626" stroke="#ffffff" stroke-width="1.5"/>
<text x="150.0" y="325.0" class="small" text-anchor="middle">centres pertinents</text>
<text x="400.0" y="325.0" class="small" text-anchor="middle">grand cluster coupé</text>
<text x="650.0" y="325.0" class="small" text-anchor="middle">lunes mal séparées</text>
</svg>
