<svg xmlns="http://www.w3.org/2000/svg" width="790" height="390" viewBox="0 0 790 390" role="img">
<style>
text { font-family: -apple-system, BlinkMacSystemFont, "Segoe UI", sans-serif; fill: #1f2937; }
.title { font-size: 24px; font-weight: 700; }
.subtitle { font-size: 14px; fill: #64748b; }
.label { font-size: 13px; fill: #64748b; }
.small { font-size: 12px; fill: #64748b; }
.node { font-size: 13px; font-weight: 650; }
</style>
<rect x="0" y="0" width="790" height="390" fill="#ffffff"/>
<text x="36.0" y="36.0" class="title" text-anchor="start">GMM : covariance_type</text>
<text x="36.0" y="58.0" class="subtitle" text-anchor="start">Ce paramètre contrôle la géométrie autorisée des clusters.</text>
<rect x="70.0" y="115.0" width="150.0" height="210.0" rx="10.0" fill="#f8fafc" stroke="#cbd5e1" stroke-width="1.5"/>
<text x="145.0" y="150.0" class="node" text-anchor="middle">spherical</text>
<ellipse cx="105.0" cy="225.0" rx="22.0" ry="22.0" fill="#dbeafe" stroke="#2563eb" stroke-width="2" opacity="0.85"/>
<ellipse cx="205.0" cy="225.0" rx="17.0" ry="17.0" fill="#fee2e2" stroke="#dc2626" stroke-width="2" opacity="0.85"/>
<text x="145.0" y="297.0" class="small" text-anchor="middle">cercles</text>
<rect x="245.0" y="115.0" width="150.0" height="210.0" rx="10.0" fill="#f8fafc" stroke="#cbd5e1" stroke-width="1.5"/>
<text x="320.0" y="150.0" class="node" text-anchor="middle">diag</text>
<ellipse cx="280.0" cy="225.0" rx="30.0" ry="16.0" fill="#dbeafe" stroke="#2563eb" stroke-width="2" opacity="0.85"/>
<ellipse cx="380.0" cy="225.0" rx="17.5" ry="29.0" fill="#fee2e2" stroke="#dc2626" stroke-width="2" opacity="0.85"/>
<text x="320.0" y="297.0" class="small" text-anchor="middle">ellipses alignées</text>
<rect x="420.0" y="115.0" width="150.0" height="210.0" rx="10.0" fill="#f8fafc" stroke="#cbd5e1" stroke-width="1.5"/>
<text x="495.0" y="150.0" class="node" text-anchor="middle">tied</text>
<ellipse cx="455.0" cy="225.0" rx="29.0" ry="16.0" fill="#dbeafe" stroke="#2563eb" stroke-width="2" opacity="0.85" transform="rotate(-25.0 455.0 225.0)"/>
<ellipse cx="555.0" cy="225.0" rx="29.0" ry="16.0" fill="#fee2e2" stroke="#dc2626" stroke-width="2" opacity="0.85" transform="rotate(-25.0 555.0 225.0)"/>
<text x="495.0" y="297.0" class="small" text-anchor="middle">même covariance</text>
<rect x="595.0" y="115.0" width="150.0" height="210.0" rx="10.0" fill="#f8fafc" stroke="#cbd5e1" stroke-width="1.5"/>
<text x="670.0" y="150.0" class="node" text-anchor="middle">full</text>
<ellipse cx="630.0" cy="225.0" rx="32.5" ry="14.0" fill="#dbeafe" stroke="#2563eb" stroke-width="2" opacity="0.85" transform="rotate(-30.0 630.0 225.0)"/>
<ellipse cx="730.0" cy="225.0" rx="20.0" ry="36.0" fill="#fee2e2" stroke="#dc2626" stroke-width="2" opacity="0.85" transform="rotate(25.0 730.0 225.0)"/>
<text x="670.0" y="297.0" class="small" text-anchor="middle">formes libres</text>
</svg>
