<svg xmlns="http://www.w3.org/2000/svg" width="760" height="390" viewBox="0 0 760 390" role="img">
<style>
text { font-family: -apple-system, BlinkMacSystemFont, "Segoe UI", sans-serif; fill: #1f2937; }
.title { font-size: 24px; font-weight: 700; }
.subtitle { font-size: 14px; fill: #64748b; }
.label { font-size: 13px; fill: #64748b; }
.small { font-size: 12px; fill: #64748b; }
.node { font-size: 13px; font-weight: 650; }
</style>
<rect x="0" y="0" width="760" height="390" fill="#ffffff"/>
<text x="36.0" y="36.0" class="title" text-anchor="start">Dendrogramme : choisir K après coup</text>
<text x="36.0" y="58.0" class="subtitle" text-anchor="start">Une coupe horizontale donne le nombre de clusters.</text>
<line x1="110.0" y1="330.0" x2="110.0" y2="285.0" stroke="#1f2937" stroke-width="2"/>
<circle cx="110.0" cy="342.0" r="4.0" fill="#1f2937" stroke="#ffffff" stroke-width="1.5"/>
<line x1="170.0" y1="330.0" x2="170.0" y2="285.0" stroke="#1f2937" stroke-width="2"/>
<circle cx="170.0" cy="342.0" r="4.0" fill="#1f2937" stroke="#ffffff" stroke-width="1.5"/>
<line x1="230.0" y1="330.0" x2="230.0" y2="285.0" stroke="#1f2937" stroke-width="2"/>
<circle cx="230.0" cy="342.0" r="4.0" fill="#1f2937" stroke="#ffffff" stroke-width="1.5"/>
<line x1="330.0" y1="330.0" x2="330.0" y2="285.0" stroke="#1f2937" stroke-width="2"/>
<circle cx="330.0" cy="342.0" r="4.0" fill="#1f2937" stroke="#ffffff" stroke-width="1.5"/>
<line x1="390.0" y1="330.0" x2="390.0" y2="285.0" stroke="#1f2937" stroke-width="2"/>
<circle cx="390.0" cy="342.0" r="4.0" fill="#1f2937" stroke="#ffffff" stroke-width="1.5"/>
<line x1="500.0" y1="330.0" x2="500.0" y2="285.0" stroke="#1f2937" stroke-width="2"/>
<circle cx="500.0" cy="342.0" r="4.0" fill="#1f2937" stroke="#ffffff" stroke-width="1.5"/>
<line x1="560.0" y1="330.0" x2="560.0" y2="285.0" stroke="#1f2937" stroke-width="2"/>
<circle cx="560.0" cy="342.0" r="4.0" fill="#1f2937" stroke="#ffffff" stroke-width="1.5"/>
<line x1="620.0" y1="330.0" x2="620.0" y2="285.0" stroke="#1f2937" stroke-width="2"/>
<circle cx="620.0" cy="342.0" r="4.0" fill="#1f2937" stroke="#ffffff" stroke-width="1.5"/>
<line x1="110.0" y1="285.0" x2="110.0" y2="235.0" stroke="#1f2937" stroke-width="2"/>
<line x1="170.0" y1="285.0" x2="170.0" y2="235.0" stroke="#1f2937" stroke-width="2"/>
<line x1="110.0" y1="235.0" x2="170.0" y2="235.0" stroke="#1f2937" stroke-width="2"/>
<line x1="330.0" y1="285.0" x2="330.0" y2="245.0" stroke="#1f2937" stroke-width="2"/>
<line x1="390.0" y1="285.0" x2="390.0" y2="245.0" stroke="#1f2937" stroke-width="2"/>
<line x1="330.0" y1="245.0" x2="390.0" y2="245.0" stroke="#1f2937" stroke-width="2"/>
<line x1="500.0" y1="285.0" x2="500.0" y2="255.0" stroke="#1f2937" stroke-width="2"/>
<line x1="560.0" y1="285.0" x2="560.0" y2="255.0" stroke="#1f2937" stroke-width="2"/>
<line x1="500.0" y1="255.0" x2="560.0" y2="255.0" stroke="#1f2937" stroke-width="2"/>
<line x1="230.0" y1="285.0" x2="230.0" y2="180.0" stroke="#1f2937" stroke-width="2"/>
<line x1="140.0" y1="285.0" x2="140.0" y2="180.0" stroke="#1f2937" stroke-width="2"/>
<line x1="140.0" y1="180.0" x2="230.0" y2="180.0" stroke="#1f2937" stroke-width="2"/>
<line x1="530.0" y1="255.0" x2="530.0" y2="180.0" stroke="#1f2937" stroke-width="2"/>
<line x1="620.0" y1="255.0" x2="620.0" y2="180.0" stroke="#1f2937" stroke-width="2"/>
<line x1="530.0" y1="180.0" x2="620.0" y2="180.0" stroke="#1f2937" stroke-width="2"/>
<line x1="360.0" y1="245.0" x2="360.0" y2="110.0" stroke="#1f2937" stroke-width="2"/>
<line x1="185.0" y1="245.0" x2="185.0" y2="110.0" stroke="#1f2937" stroke-width="2"/>
<line x1="185.0" y1="110.0" x2="360.0" y2="110.0" stroke="#1f2937" stroke-width="2"/>
<line x1="575.0" y1="180.0" x2="575.0" y2="50.0" stroke="#1f2937" stroke-width="2"/>
<line x1="272.5" y1="180.0" x2="272.5" y2="50.0" stroke="#1f2937" stroke-width="2"/>
<line x1="272.5" y1="50.0" x2="575.0" y2="50.0" stroke="#1f2937" stroke-width="2"/>
<line x1="95.0" y1="155.0" x2="660.0" y2="155.0" stroke="#ea580c" stroke-width="3" stroke-dasharray="8 6"/>
<text x="668.0" y="160.0" class="node" text-anchor="start">coupe → K = 3</text>
<text x="40.0" y="180.0" class="label" text-anchor="middle">distance</text>
</svg>
