<svg xmlns="http://www.w3.org/2000/svg" width="790" height="400" viewBox="0 0 790 400" role="img">
<style>
text { font-family: -apple-system, BlinkMacSystemFont, "Segoe UI", sans-serif; fill: #1f2937; }
.title { font-size: 24px; font-weight: 700; }
.subtitle { font-size: 14px; fill: #64748b; }
.label { font-size: 13px; fill: #64748b; }
.small { font-size: 12px; fill: #64748b; }
.node { font-size: 13px; font-weight: 650; }
</style>
<rect x="0" y="0" width="790" height="400" fill="#ffffff"/>
<text x="36.0" y="36.0" class="title" text-anchor="start">Single vs complete linkage</text>
<text x="36.0" y="58.0" class="subtitle" text-anchor="start">La définition de distance entre clusters change fortement le résultat.</text>
<rect x="45.0" y="95.0" width="320.0" height="250.0" rx="12.0" fill="#ffedd5" stroke="#ea580c" stroke-width="2"/>
<text x="205.0" y="125.0" class="node" text-anchor="middle">Single linkage</text>
<circle cx="95.0" cy="224.4" r="5.0" fill="#2563eb" stroke="#ffffff" stroke-width="1.5"/>
<circle cx="135.0" cy="200.6" r="5.0" fill="#2563eb" stroke="#ffffff" stroke-width="1.5"/>
<line x1="95.0" y1="224.4" x2="135.0" y2="200.6" stroke="#2563eb" stroke-width="2"/>
<circle cx="175.0" cy="214.1" r="5.0" fill="#2563eb" stroke="#ffffff" stroke-width="1.5"/>
<line x1="135.0" y1="200.6" x2="175.0" y2="214.1" stroke="#2563eb" stroke-width="2"/>
<circle cx="215.0" cy="244.3" r="5.0" fill="#2563eb" stroke="#ffffff" stroke-width="1.5"/>
<line x1="175.0" y1="214.1" x2="215.0" y2="244.3" stroke="#2563eb" stroke-width="2"/>
<circle cx="255.0" cy="245.0" r="5.0" fill="#2563eb" stroke="#ffffff" stroke-width="1.5"/>
<line x1="215.0" y1="244.3" x2="255.0" y2="245.0" stroke="#2563eb" stroke-width="2"/>
<circle cx="295.0" cy="215.1" r="5.0" fill="#2563eb" stroke="#ffffff" stroke-width="1.5"/>
<line x1="255.0" y1="245.0" x2="295.0" y2="215.1" stroke="#2563eb" stroke-width="2"/>
<text x="205.0" y="325.0" class="small" text-anchor="middle">effet de chaînage</text>
<rect x="425.0" y="95.0" width="320.0" height="250.0" rx="12.0" fill="#dcfce7" stroke="#16a34a" stroke-width="2"/>
<text x="585.0" y="125.0" class="node" text-anchor="middle">Complete linkage</text>
<circle cx="556.5" cy="235.3" r="5.0" fill="#2563eb" stroke="#ffffff" stroke-width="1.5"/>
<circle cx="514.3" cy="239.5" r="5.0" fill="#2563eb" stroke="#ffffff" stroke-width="1.5"/>
<circle cx="545.8" cy="218.6" r="5.0" fill="#2563eb" stroke="#ffffff" stroke-width="1.5"/>
<circle cx="548.0" cy="250.3" r="5.0" fill="#2563eb" stroke="#ffffff" stroke-width="1.5"/>
<circle cx="530.4" cy="225.5" r="5.0" fill="#2563eb" stroke="#ffffff" stroke-width="1.5"/>
<circle cx="560.5" cy="225.2" r="5.0" fill="#2563eb" stroke="#ffffff" stroke-width="1.5"/>
<circle cx="523.3" cy="253.4" r="5.0" fill="#2563eb" stroke="#ffffff" stroke-width="1.5"/>
<circle cx="536.6" cy="214.7" r="5.0" fill="#2563eb" stroke="#ffffff" stroke-width="1.5"/>
<circle cx="562.8" cy="244.5" r="5.0" fill="#2563eb" stroke="#ffffff" stroke-width="1.5"/>
<circle cx="525.6" cy="231.5" r="5.0" fill="#2563eb" stroke="#ffffff" stroke-width="1.5"/>
<circle cx="665.0" cy="240.6" r="5.0" fill="#dc2626" stroke="#ffffff" stroke-width="1.5"/>
<circle cx="620.5" cy="231.8" r="5.0" fill="#dc2626" stroke="#ffffff" stroke-width="1.5"/>
<circle cx="660.9" cy="219.8" r="5.0" fill="#dc2626" stroke="#ffffff" stroke-width="1.5"/>
<circle cx="650.0" cy="253.0" r="5.0" fill="#dc2626" stroke="#ffffff" stroke-width="1.5"/>
<circle cx="641.4" cy="222.0" r="5.0" fill="#dc2626" stroke="#ffffff" stroke-width="1.5"/>
<circle cx="672.8" cy="231.4" r="5.0" fill="#dc2626" stroke="#ffffff" stroke-width="1.5"/>
<circle cx="642.9" cy="235.1" r="5.0" fill="#dc2626" stroke="#ffffff" stroke-width="1.5"/>
<circle cx="652.7" cy="213.1" r="5.0" fill="#dc2626" stroke="#ffffff" stroke-width="1.5"/>
<circle cx="667.1" cy="251.4" r="5.0" fill="#dc2626" stroke="#ffffff" stroke-width="1.5"/>
<circle cx="634.2" cy="227.1" r="5.0" fill="#dc2626" stroke="#ffffff" stroke-width="1.5"/>
<text x="585.0" y="325.0" class="small" text-anchor="middle">clusters compacts</text>
</svg>
