<svg xmlns="http://www.w3.org/2000/svg" width="760" height="400" viewBox="0 0 760 400" role="img">
<style>
text { font-family: -apple-system, BlinkMacSystemFont, "Segoe UI", sans-serif; fill: #1f2937; }
.title { font-size: 24px; font-weight: 700; }
.subtitle { font-size: 14px; fill: #64748b; }
.label { font-size: 13px; fill: #64748b; }
.small { font-size: 12px; fill: #64748b; }
.node { font-size: 13px; font-weight: 650; }
</style>
<rect x="0" y="0" width="760" height="400" fill="#ffffff"/>
<text x="36.0" y="36.0" class="title" text-anchor="start">DBSCAN : core, border, noise</text>
<text x="36.0" y="58.0" class="subtitle" text-anchor="start">DBSCAN étend les clusters depuis les points suffisamment denses.</text>
<circle cx="271.7" cy="212.7" r="5.0" fill="#2563eb" stroke="#ffffff" stroke-width="1.5"/>
<circle cx="331.0" cy="213.4" r="5.0" fill="#2563eb" stroke="#ffffff" stroke-width="1.5"/>
<circle cx="254.7" cy="256.2" r="5.0" fill="#2563eb" stroke="#ffffff" stroke-width="1.5"/>
<circle cx="284.5" cy="195.9" r="5.0" fill="#2563eb" stroke="#ffffff" stroke-width="1.5"/>
<circle cx="334.3" cy="244.0" r="5.0" fill="#2563eb" stroke="#ffffff" stroke-width="1.5"/>
<circle cx="261.7" cy="221.7" r="5.0" fill="#2563eb" stroke="#ffffff" stroke-width="1.5"/>
<circle cx="323.1" cy="194.6" r="5.0" fill="#2563eb" stroke="#ffffff" stroke-width="1.5"/>
<circle cx="290.4" cy="235.0" r="5.0" fill="#2563eb" stroke="#ffffff" stroke-width="1.5"/>
<circle cx="260.4" cy="198.8" r="5.0" fill="#2563eb" stroke="#ffffff" stroke-width="1.5"/>
<circle cx="353.5" cy="222.3" r="5.0" fill="#2563eb" stroke="#ffffff" stroke-width="1.5"/>
<circle cx="262.6" cy="235.9" r="5.0" fill="#2563eb" stroke="#ffffff" stroke-width="1.5"/>
<circle cx="296.9" cy="181.0" r="5.0" fill="#2563eb" stroke="#ffffff" stroke-width="1.5"/>
<circle cx="307.0" cy="236.2" r="5.0" fill="#2563eb" stroke="#ffffff" stroke-width="1.5"/>
<circle cx="241.0" cy="213.4" r="5.0" fill="#2563eb" stroke="#ffffff" stroke-width="1.5"/>
<circle cx="308.7" cy="211.9" r="5.0" fill="#2563eb" stroke="#ffffff" stroke-width="1.5"/>
<circle cx="278.9" cy="248.8" r="5.0" fill="#2563eb" stroke="#ffffff" stroke-width="1.5"/>
<circle cx="259.9" cy="180.9" r="5.0" fill="#2563eb" stroke="#ffffff" stroke-width="1.5"/>
<circle cx="324.3" cy="228.2" r="5.0" fill="#2563eb" stroke="#ffffff" stroke-width="1.5"/>
<circle cx="483.9" cy="207.2" r="5.0" fill="#dc2626" stroke="#ffffff" stroke-width="1.5"/>
<circle cx="545.3" cy="223.3" r="5.0" fill="#dc2626" stroke="#ffffff" stroke-width="1.5"/>
<circle cx="485.9" cy="227.4" r="5.0" fill="#dc2626" stroke="#ffffff" stroke-width="1.5"/>
<circle cx="506.7" cy="193.6" r="5.0" fill="#dc2626" stroke="#ffffff" stroke-width="1.5"/>
<circle cx="532.5" cy="254.6" r="5.0" fill="#dc2626" stroke="#ffffff" stroke-width="1.5"/>
<circle cx="469.1" cy="214.7" r="5.0" fill="#dc2626" stroke="#ffffff" stroke-width="1.5"/>
<circle cx="546.2" cy="202.3" r="5.0" fill="#dc2626" stroke="#ffffff" stroke-width="1.5"/>
<circle cx="492.3" cy="236.5" r="5.0" fill="#dc2626" stroke="#ffffff" stroke-width="1.5"/>
<circle cx="480.6" cy="191.1" r="5.0" fill="#dc2626" stroke="#ffffff" stroke-width="1.5"/>
<circle cx="516.9" cy="224.7" r="5.0" fill="#dc2626" stroke="#ffffff" stroke-width="1.5"/>
<circle cx="463.4" cy="229.7" r="5.0" fill="#dc2626" stroke="#ffffff" stroke-width="1.5"/>
<circle cx="526.4" cy="182.6" r="5.0" fill="#dc2626" stroke="#ffffff" stroke-width="1.5"/>
<circle cx="509.5" cy="241.4" r="5.0" fill="#dc2626" stroke="#ffffff" stroke-width="1.5"/>
<circle cx="453.8" cy="201.6" r="5.0" fill="#dc2626" stroke="#ffffff" stroke-width="1.5"/>
<circle cx="524.9" cy="216.0" r="5.0" fill="#dc2626" stroke="#ffffff" stroke-width="1.5"/>
<circle cx="474.0" cy="246.7" r="5.0" fill="#dc2626" stroke="#ffffff" stroke-width="1.5"/>
<circle cx="497.1" cy="207.2" r="5.0" fill="#dc2626" stroke="#ffffff" stroke-width="1.5"/>
<circle cx="531.2" cy="236.9" r="5.0" fill="#dc2626" stroke="#ffffff" stroke-width="1.5"/>
<ellipse cx="285.0" cy="220.0" rx="70.0" ry="70.0" fill="none" stroke="#2563eb" stroke-width="2" opacity="0.9"/>
<circle cx="285.0" cy="220.0" r="9.0" fill="#16a34a" stroke="#ffffff" stroke-width="1.5"/>
<circle cx="360.0" cy="245.0" r="8.0" fill="#ea580c" stroke="#ffffff" stroke-width="1.5"/>
<circle cx="655.0" cy="115.0" r="8.0" fill="#1f2937" stroke="#ffffff" stroke-width="1.5"/>
<text x="240.0" y="138.0" class="small" text-anchor="start">eps</text>
<text x="285.0" y="315.0" class="node" text-anchor="middle">core point</text>
<text x="360.0" y="275.0" class="node" text-anchor="middle">border</text>
<text x="655.0" y="145.0" class="node" text-anchor="middle">noise</text>
<text x="400.0" y="345.0" class="small" text-anchor="middle">MinPts décide si un point est assez dense pour étendre le cluster.</text>
</svg>
