<svg xmlns="http://www.w3.org/2000/svg" width="720" height="420" viewBox="0 0 720 420" role="img">
<style>
text { font-family: -apple-system, BlinkMacSystemFont, "Segoe UI", sans-serif; fill: #1f2937; }
.title { font-size: 24px; font-weight: 700; }
.subtitle { font-size: 14px; fill: #64748b; }
.label { font-size: 13px; fill: #64748b; }
.small { font-size: 12px; fill: #64748b; }
.node { font-size: 13px; font-weight: 650; }
</style>
<rect x="0" y="0" width="720" height="420" fill="#ffffff"/>
<text x="36.0" y="36.0" class="title" text-anchor="start">K-distance graph : choisir eps</text>
<text x="36.0" y="58.0" class="subtitle" text-anchor="start">Le coude indique souvent un bon rayon eps pour DBSCAN.</text>
<line x1="85.0" y1="75.0" x2="650.0" y2="75.0" stroke="#e5e7eb" stroke-width="1"/>
<line x1="85.0" y1="127.0" x2="650.0" y2="127.0" stroke="#e5e7eb" stroke-width="1"/>
<line x1="85.0" y1="179.0" x2="650.0" y2="179.0" stroke="#e5e7eb" stroke-width="1"/>
<line x1="85.0" y1="231.0" x2="650.0" y2="231.0" stroke="#e5e7eb" stroke-width="1"/>
<line x1="85.0" y1="283.0" x2="650.0" y2="283.0" stroke="#e5e7eb" stroke-width="1"/>
<line x1="85.0" y1="335.0" x2="650.0" y2="335.0" stroke="#e5e7eb" stroke-width="1"/>
<line x1="85.0" y1="335.0" x2="650.0" y2="335.0" stroke="#1f2937" stroke-width="2"/>
<line x1="85.0" y1="75.0" x2="85.0" y2="335.0" stroke="#1f2937" stroke-width="2"/>
<polyline points="85.0,303.8 92.2,303.4 99.3,303.0 106.5,302.6 113.6,302.2 120.8,301.9 127.9,301.5 135.1,301.1 142.2,300.7 149.4,300.3 156.5,299.9 163.7,299.5 170.8,299.1 178.0,298.7 185.1,298.3 192.3,297.9 199.4,297.6 206.6,297.2 213.7,296.8 220.9,296.4 228.0,296.0 235.2,295.6 242.3,295.2 249.5,294.8 256.6,294.4 263.8,294.1 270.9,293.7 278.1,293.3 285.3,292.9 292.4,292.5 299.6,292.1 306.7,291.7 313.9,291.3 321.0,290.9 328.2,290.5 335.3,290.1 342.5,289.8 349.6,289.4 356.8,289.0 363.9,288.6 371.1,288.2 378.2,287.8 385.4,287.4 392.5,287.0 399.7,286.6 406.8,286.2 414.0,285.9 421.1,285.5 428.3,285.1 435.4,284.7 442.6,284.3 449.7,283.9 456.9,283.5 464.1,283.1 471.2,282.5 478.4,281.9 485.5,281.1 492.7,280.3 499.8,279.3 507.0,278.2 514.1,277.1 521.3,275.8 528.4,274.4 535.6,272.9 542.7,271.4 549.9,269.7 557.0,267.9 564.2,266.0 571.3,264.0 578.5,261.9 585.6,259.7 592.8,257.3 599.9,254.9 607.1,252.4 614.2,249.8 621.4,247.0 628.5,244.2 635.7,241.3 642.8,238.2 650.0,235.1" fill="none" stroke="#2563eb" stroke-width="4" stroke-linecap="round" stroke-linejoin="round"/>
<circle cx="485.5" cy="281.1" r="9.0" fill="#ea580c" stroke="#ffffff" stroke-width="1.5"/>
<line x1="85.0" y1="281.1" x2="650.0" y2="281.1" stroke="#ea580c" stroke-width="2" stroke-dasharray="6 6"/>
<text x="503.5" y="271.1" class="node" text-anchor="start">eps</text>
<text x="367.5" y="390.0" class="label" text-anchor="middle">points triés par distance au k-ième voisin</text>
<text x="25.0" y="205.0" class="label" text-anchor="middle">distance</text>
</svg>
