<svg xmlns="http://www.w3.org/2000/svg" width="760" height="390" viewBox="0 0 760 390" role="img">
<style>
text { font-family: -apple-system, BlinkMacSystemFont, "Segoe UI", sans-serif; fill: #1f2937; }
.title { font-size: 24px; font-weight: 700; }
.subtitle { font-size: 14px; fill: #64748b; }
.label { font-size: 13px; fill: #64748b; }
.small { font-size: 12px; fill: #64748b; }
.node { font-size: 13px; font-weight: 650; }
</style>
<rect x="0" y="0" width="760" height="390" fill="#ffffff"/>
<text x="36.0" y="36.0" class="title" text-anchor="start">Fléau de la dimensionnalité</text>
<text x="36.0" y="58.0" class="subtitle" text-anchor="start">Plus il y a de dimensions, plus les points deviennent isolés.</text>
<rect x="60.0" y="105.0" width="180.0" height="230.0" rx="10.0" fill="#f8fafc" stroke="#cbd5e1" stroke-width="1.5"/>
<text x="150.0" y="135.0" class="node" text-anchor="middle">1D</text>
<rect x="290.0" y="105.0" width="180.0" height="230.0" rx="10.0" fill="#f8fafc" stroke="#cbd5e1" stroke-width="1.5"/>
<text x="380.0" y="135.0" class="node" text-anchor="middle">2D</text>
<rect x="520.0" y="105.0" width="180.0" height="230.0" rx="10.0" fill="#f8fafc" stroke="#cbd5e1" stroke-width="1.5"/>
<text x="610.0" y="135.0" class="node" text-anchor="middle">Haute dimension</text>
<circle cx="85.0" cy="225.0" r="4.0" fill="#2563eb" stroke="#ffffff" stroke-width="1.5"/>
<circle cx="94.0" cy="225.0" r="4.0" fill="#2563eb" stroke="#ffffff" stroke-width="1.5"/>
<circle cx="103.0" cy="225.0" r="4.0" fill="#2563eb" stroke="#ffffff" stroke-width="1.5"/>
<circle cx="112.0" cy="225.0" r="4.0" fill="#2563eb" stroke="#ffffff" stroke-width="1.5"/>
<circle cx="121.0" cy="225.0" r="4.0" fill="#2563eb" stroke="#ffffff" stroke-width="1.5"/>
<circle cx="130.0" cy="225.0" r="4.0" fill="#2563eb" stroke="#ffffff" stroke-width="1.5"/>
<circle cx="139.0" cy="225.0" r="4.0" fill="#2563eb" stroke="#ffffff" stroke-width="1.5"/>
<circle cx="148.0" cy="225.0" r="4.0" fill="#2563eb" stroke="#ffffff" stroke-width="1.5"/>
<circle cx="157.0" cy="225.0" r="4.0" fill="#2563eb" stroke="#ffffff" stroke-width="1.5"/>
<circle cx="166.0" cy="225.0" r="4.0" fill="#2563eb" stroke="#ffffff" stroke-width="1.5"/>
<circle cx="175.0" cy="225.0" r="4.0" fill="#2563eb" stroke="#ffffff" stroke-width="1.5"/>
<circle cx="184.0" cy="225.0" r="4.0" fill="#2563eb" stroke="#ffffff" stroke-width="1.5"/>
<circle cx="193.0" cy="225.0" r="4.0" fill="#2563eb" stroke="#ffffff" stroke-width="1.5"/>
<circle cx="202.0" cy="225.0" r="4.0" fill="#2563eb" stroke="#ffffff" stroke-width="1.5"/>
<circle cx="211.0" cy="225.0" r="4.0" fill="#2563eb" stroke="#ffffff" stroke-width="1.5"/>
<circle cx="220.0" cy="225.0" r="4.0" fill="#2563eb" stroke="#ffffff" stroke-width="1.5"/>
<circle cx="419.1" cy="257.8" r="5.0" fill="#2563eb" stroke="#ffffff" stroke-width="1.5"/>
<circle cx="354.7" cy="226.3" r="5.0" fill="#2563eb" stroke="#ffffff" stroke-width="1.5"/>
<circle cx="411.1" cy="192.8" r="5.0" fill="#2563eb" stroke="#ffffff" stroke-width="1.5"/>
<circle cx="379.7" cy="244.0" r="5.0" fill="#2563eb" stroke="#ffffff" stroke-width="1.5"/>
<circle cx="354.3" cy="196.5" r="5.0" fill="#2563eb" stroke="#ffffff" stroke-width="1.5"/>
<circle cx="437.5" cy="230.0" r="5.0" fill="#2563eb" stroke="#ffffff" stroke-width="1.5"/>
<circle cx="354.7" cy="244.8" r="5.0" fill="#2563eb" stroke="#ffffff" stroke-width="1.5"/>
<circle cx="388.0" cy="174.2" r="5.0" fill="#2563eb" stroke="#ffffff" stroke-width="1.5"/>
<circle cx="394.4" cy="246.4" r="5.0" fill="#2563eb" stroke="#ffffff" stroke-width="1.5"/>
<circle cx="336.0" cy="214.8" r="5.0" fill="#2563eb" stroke="#ffffff" stroke-width="1.5"/>
<circle cx="396.9" cy="215.2" r="5.0" fill="#2563eb" stroke="#ffffff" stroke-width="1.5"/>
<circle cx="368.6" cy="262.2" r="5.0" fill="#2563eb" stroke="#ffffff" stroke-width="1.5"/>
<circle cx="354.5" cy="172.7" r="5.0" fill="#2563eb" stroke="#ffffff" stroke-width="1.5"/>
<circle cx="410.4" cy="236.7" r="5.0" fill="#2563eb" stroke="#ffffff" stroke-width="1.5"/>
<circle cx="331.9" cy="244.4" r="5.0" fill="#2563eb" stroke="#ffffff" stroke-width="1.5"/>
<circle cx="391.1" cy="201.2" r="5.0" fill="#2563eb" stroke="#ffffff" stroke-width="1.5"/>
<circle cx="560.0" cy="170.0" r="5.0" fill="#2563eb" stroke="#ffffff" stroke-width="1.5"/>
<circle cx="665.0" cy="150.0" r="5.0" fill="#2563eb" stroke="#ffffff" stroke-width="1.5"/>
<circle cx="590.0" cy="260.0" r="5.0" fill="#2563eb" stroke="#ffffff" stroke-width="1.5"/>
<circle cx="680.0" cy="290.0" r="5.0" fill="#2563eb" stroke="#ffffff" stroke-width="1.5"/>
<circle cx="610.0" cy="210.0" r="5.0" fill="#2563eb" stroke="#ffffff" stroke-width="1.5"/>
<circle cx="540.0" cy="300.0" r="5.0" fill="#2563eb" stroke="#ffffff" stroke-width="1.5"/>
<circle cx="700.0" cy="220.0" r="5.0" fill="#2563eb" stroke="#ffffff" stroke-width="1.5"/>
<circle cx="640.0" cy="250.0" r="5.0" fill="#2563eb" stroke="#ffffff" stroke-width="1.5"/>
<text x="150.0" y="320.0" class="small" text-anchor="middle">distances utiles</text>
<text x="380.0" y="320.0" class="small" text-anchor="middle">déjà plus dispersé</text>
<text x="610.0" y="320.0" class="small" text-anchor="middle">voisins moins fiables</text>
</svg>
