<svg xmlns="http://www.w3.org/2000/svg" width="740" height="420" viewBox="0 0 740 420" role="img">
<style>
text { font-family: -apple-system, BlinkMacSystemFont, "Segoe UI", sans-serif; fill: #1f2937; }
.title { font-size: 24px; font-weight: 700; }
.subtitle { font-size: 14px; fill: #64748b; }
.label { font-size: 13px; fill: #64748b; }
.small { font-size: 12px; fill: #64748b; }
.node { font-size: 13px; font-weight: 650; }
</style>
<rect x="0" y="0" width="740" height="420" fill="#ffffff"/>
<text x="36.0" y="36.0" class="title" text-anchor="start">Scree plot et variance cumulée</text>
<text x="36.0" y="58.0" class="subtitle" text-anchor="start">On garde assez de composantes pour atteindre le niveau de variance voulu.</text>
<line x1="85.0" y1="75.0" x2="650.0" y2="75.0" stroke="#e5e7eb" stroke-width="1"/>
<line x1="85.0" y1="127.0" x2="650.0" y2="127.0" stroke="#e5e7eb" stroke-width="1"/>
<line x1="85.0" y1="179.0" x2="650.0" y2="179.0" stroke="#e5e7eb" stroke-width="1"/>
<line x1="85.0" y1="231.0" x2="650.0" y2="231.0" stroke="#e5e7eb" stroke-width="1"/>
<line x1="85.0" y1="283.0" x2="650.0" y2="283.0" stroke="#e5e7eb" stroke-width="1"/>
<line x1="85.0" y1="335.0" x2="650.0" y2="335.0" stroke="#e5e7eb" stroke-width="1"/>
<line x1="85.0" y1="335.0" x2="650.0" y2="335.0" stroke="#1f2937" stroke-width="2"/>
<line x1="85.0" y1="75.0" x2="85.0" y2="335.0" stroke="#1f2937" stroke-width="2"/>
<rect x="95.0" y="236.2" width="38.8" height="98.8" rx="3.0" fill="#dbeafe" stroke="#2563eb" stroke-width="1.3"/>
<text x="114.4" y="358.0" class="small" text-anchor="middle">PC1</text>
<rect x="165.6" y="272.6" width="38.8" height="62.4" rx="3.0" fill="#dbeafe" stroke="#2563eb" stroke-width="1.3"/>
<text x="185.0" y="358.0" class="small" text-anchor="middle">PC2</text>
<rect x="236.2" y="296.0" width="38.8" height="39.0" rx="3.0" fill="#dbeafe" stroke="#2563eb" stroke-width="1.3"/>
<text x="255.7" y="358.0" class="small" text-anchor="middle">PC3</text>
<rect x="306.9" y="311.6" width="38.8" height="23.4" rx="3.0" fill="#dbeafe" stroke="#2563eb" stroke-width="1.3"/>
<text x="326.3" y="358.0" class="small" text-anchor="middle">PC4</text>
<rect x="377.5" y="319.4" width="38.8" height="15.6" rx="3.0" fill="#dbeafe" stroke="#2563eb" stroke-width="1.3"/>
<text x="396.9" y="358.0" class="small" text-anchor="middle">PC5</text>
<rect x="448.1" y="324.6" width="38.8" height="10.4" rx="3.0" fill="#dbeafe" stroke="#2563eb" stroke-width="1.3"/>
<text x="467.5" y="358.0" class="small" text-anchor="middle">PC6</text>
<rect x="518.8" y="328.5" width="38.8" height="6.5" rx="3.0" fill="#dbeafe" stroke="#2563eb" stroke-width="1.3"/>
<text x="538.2" y="358.0" class="small" text-anchor="middle">PC7</text>
<rect x="589.4" y="331.1" width="38.8" height="3.9" rx="3.0" fill="#dbeafe" stroke="#2563eb" stroke-width="1.3"/>
<text x="608.8" y="358.0" class="small" text-anchor="middle">PC8</text>
<circle cx="114.4" cy="236.2" r="4.0" fill="#ea580c" stroke="#ffffff" stroke-width="1.5"/>
<circle cx="185.0" cy="173.8" r="4.0" fill="#ea580c" stroke="#ffffff" stroke-width="1.5"/>
<circle cx="255.7" cy="134.8" r="4.0" fill="#ea580c" stroke="#ffffff" stroke-width="1.5"/>
<circle cx="326.3" cy="111.4" r="4.0" fill="#ea580c" stroke="#ffffff" stroke-width="1.5"/>
<circle cx="396.9" cy="95.8" r="4.0" fill="#ea580c" stroke="#ffffff" stroke-width="1.5"/>
<circle cx="467.5" cy="85.4" r="4.0" fill="#ea580c" stroke="#ffffff" stroke-width="1.5"/>
<circle cx="538.2" cy="78.9" r="4.0" fill="#ea580c" stroke="#ffffff" stroke-width="1.5"/>
<circle cx="608.8" cy="75.0" r="4.0" fill="#ea580c" stroke="#ffffff" stroke-width="1.5"/>
<polyline points="114.4,236.2 185.0,173.8 255.7,134.8 326.3,111.4 396.9,95.8 467.5,85.4 538.2,78.9 608.8,75.0" fill="none" stroke="#ea580c" stroke-width="3" stroke-linecap="round" stroke-linejoin="round"/>
<line x1="85.0" y1="127.0" x2="650.0" y2="127.0" stroke="#16a34a" stroke-width="2" stroke-dasharray="6 6"/>
<text x="658.0" y="131.0" class="node" text-anchor="start">80%</text>
<text x="365.0" y="390.0" class="label" text-anchor="middle">barres = variance expliquée ; ligne = variance cumulée</text>
</svg>
