<svg xmlns="http://www.w3.org/2000/svg" width="720" height="400" viewBox="0 0 720 400" role="img">
<style>
text { font-family: -apple-system, BlinkMacSystemFont, "Segoe UI", sans-serif; fill: #1f2937; }
.title { font-size: 24px; font-weight: 700; }
.subtitle { font-size: 14px; fill: #64748b; }
.label { font-size: 13px; fill: #64748b; }
.small { font-size: 12px; fill: #64748b; }
.node { font-size: 13px; font-weight: 650; }
</style>
<rect x="0" y="0" width="720" height="400" fill="#ffffff"/>
<text x="36.0" y="36.0" class="title" text-anchor="start">One-Class SVM : enveloppe normale</text>
<text x="36.0" y="58.0" class="subtitle" text-anchor="start">Le modèle apprend une frontière autour des données normales.</text>
<ellipse cx="360.0" cy="220.0" rx="210.0" ry="110.0" fill="#dcfce7" stroke="#16a34a" stroke-width="3" opacity="0.55" transform="rotate(-8.0 360.0 220.0)"/>
<circle cx="387.0" cy="244.2" r="5.0" fill="#2563eb" stroke="#ffffff" stroke-width="1.5"/>
<circle cx="266.7" cy="205.2" r="5.0" fill="#2563eb" stroke="#ffffff" stroke-width="1.5"/>
<circle cx="395.8" cy="210.9" r="5.0" fill="#2563eb" stroke="#ffffff" stroke-width="1.5"/>
<circle cx="330.1" cy="260.4" r="5.0" fill="#2563eb" stroke="#ffffff" stroke-width="1.5"/>
<circle cx="312.5" cy="159.0" r="5.0" fill="#2563eb" stroke="#ffffff" stroke-width="1.5"/>
<circle cx="422.7" cy="235.2" r="5.0" fill="#2563eb" stroke="#ffffff" stroke-width="1.5"/>
<circle cx="252.8" cy="238.1" r="5.0" fill="#2563eb" stroke="#ffffff" stroke-width="1.5"/>
<circle cx="386.7" cy="195.1" r="5.0" fill="#2563eb" stroke="#ffffff" stroke-width="1.5"/>
<circle cx="383.8" cy="269.6" r="5.0" fill="#2563eb" stroke="#ffffff" stroke-width="1.5"/>
<circle cx="325.8" cy="208.5" r="5.0" fill="#2563eb" stroke="#ffffff" stroke-width="1.5"/>
<circle cx="443.1" cy="212.4" r="5.0" fill="#2563eb" stroke="#ffffff" stroke-width="1.5"/>
<circle cx="283.0" cy="273.0" r="5.0" fill="#2563eb" stroke="#ffffff" stroke-width="1.5"/>
<circle cx="352.7" cy="183.8" r="5.0" fill="#2563eb" stroke="#ffffff" stroke-width="1.5"/>
<circle cx="445.8" cy="258.7" r="5.0" fill="#2563eb" stroke="#ffffff" stroke-width="1.5"/>
<circle cx="304.0" cy="221.0" r="5.0" fill="#2563eb" stroke="#ffffff" stroke-width="1.5"/>
<circle cx="430.4" cy="183.5" r="5.0" fill="#2563eb" stroke="#ffffff" stroke-width="1.5"/>
<circle cx="358.5" cy="241.7" r="5.0" fill="#2563eb" stroke="#ffffff" stroke-width="1.5"/>
<circle cx="304.0" cy="186.6" r="5.0" fill="#2563eb" stroke="#ffffff" stroke-width="1.5"/>
<circle cx="488.2" cy="227.0" r="5.0" fill="#2563eb" stroke="#ffffff" stroke-width="1.5"/>
<circle cx="303.1" cy="242.2" r="5.0" fill="#2563eb" stroke="#ffffff" stroke-width="1.5"/>
<circle cx="379.9" cy="161.4" r="5.0" fill="#2563eb" stroke="#ffffff" stroke-width="1.5"/>
<circle cx="391.1" cy="244.8" r="5.0" fill="#2563eb" stroke="#ffffff" stroke-width="1.5"/>
<circle cx="262.4" cy="207.4" r="5.0" fill="#2563eb" stroke="#ffffff" stroke-width="1.5"/>
<circle cx="397.5" cy="209.2" r="5.0" fill="#2563eb" stroke="#ffffff" stroke-width="1.5"/>
<circle cx="333.3" cy="262.6" r="5.0" fill="#2563eb" stroke="#ffffff" stroke-width="1.5"/>
<circle cx="305.1" cy="158.9" r="5.0" fill="#2563eb" stroke="#ffffff" stroke-width="1.5"/>
<circle cx="427.0" cy="234.0" r="5.0" fill="#2563eb" stroke="#ffffff" stroke-width="1.5"/>
<circle cx="251.9" cy="241.5" r="5.0" fill="#2563eb" stroke="#ffffff" stroke-width="1.5"/>
<circle cx="385.4" cy="192.9" r="5.0" fill="#2563eb" stroke="#ffffff" stroke-width="1.5"/>
<circle cx="389.7" cy="270.4" r="5.0" fill="#2563eb" stroke="#ffffff" stroke-width="1.5"/>
<circle cx="322.0" cy="208.6" r="5.0" fill="#2563eb" stroke="#ffffff" stroke-width="1.5"/>
<circle cx="445.2" cy="209.8" r="5.0" fill="#2563eb" stroke="#ffffff" stroke-width="1.5"/>
<circle cx="286.8" cy="276.3" r="5.0" fill="#2563eb" stroke="#ffffff" stroke-width="1.5"/>
<circle cx="348.5" cy="182.5" r="5.0" fill="#2563eb" stroke="#ffffff" stroke-width="1.5"/>
<circle cx="615.0" cy="145.0" r="8.0" fill="#dc2626" stroke="#ffffff" stroke-width="1.5"/>
<circle cx="600.0" cy="295.0" r="8.0" fill="#dc2626" stroke="#ffffff" stroke-width="1.5"/>
<circle cx="120.0" cy="130.0" r="8.0" fill="#dc2626" stroke="#ffffff" stroke-width="1.5"/>
<text x="360.0" y="355.0" class="node" text-anchor="middle">dedans = normal ; dehors = anomalie</text>
</svg>
