<svg xmlns="http://www.w3.org/2000/svg" width="720" height="400" viewBox="0 0 720 400" role="img">
<style>
text { font-family: -apple-system, BlinkMacSystemFont, "Segoe UI", sans-serif; fill: #1f2937; }
.title { font-size: 24px; font-weight: 700; }
.subtitle { font-size: 14px; fill: #64748b; }
.label { font-size: 13px; fill: #64748b; }
.small { font-size: 12px; fill: #64748b; }
.node { font-size: 13px; font-weight: 650; }
</style>
<rect x="0" y="0" width="720" height="400" fill="#ffffff"/>
<text x="36.0" y="36.0" class="title" text-anchor="start">Isolation Forest : anomalies faciles à isoler</text>
<text x="36.0" y="58.0" class="subtitle" text-anchor="start">Les points rares et différents nécessitent peu de coupes aléatoires.</text>
<circle cx="316.8" cy="159.8" r="5.0" fill="#2563eb" stroke="#ffffff" stroke-width="1.5"/>
<circle cx="396.5" cy="241.9" r="5.0" fill="#2563eb" stroke="#ffffff" stroke-width="1.5"/>
<circle cx="267.2" cy="242.0" r="5.0" fill="#2563eb" stroke="#ffffff" stroke-width="1.5"/>
<circle cx="371.2" cy="199.8" r="5.0" fill="#2563eb" stroke="#ffffff" stroke-width="1.5"/>
<circle cx="365.6" cy="277.5" r="5.0" fill="#2563eb" stroke="#ffffff" stroke-width="1.5"/>
<circle cx="325.3" cy="212.6" r="5.0" fill="#2563eb" stroke="#ffffff" stroke-width="1.5"/>
<circle cx="413.4" cy="218.6" r="5.0" fill="#2563eb" stroke="#ffffff" stroke-width="1.5"/>
<circle cx="288.4" cy="279.4" r="5.0" fill="#2563eb" stroke="#ffffff" stroke-width="1.5"/>
<circle cx="346.3" cy="187.2" r="5.0" fill="#2563eb" stroke="#ffffff" stroke-width="1.5"/>
<circle cx="413.5" cy="267.3" r="5.0" fill="#2563eb" stroke="#ffffff" stroke-width="1.5"/>
<circle cx="308.0" cy="225.0" r="5.0" fill="#2563eb" stroke="#ffffff" stroke-width="1.5"/>
<circle cx="405.5" cy="188.0" r="5.0" fill="#2563eb" stroke="#ffffff" stroke-width="1.5"/>
<circle cx="347.8" cy="247.1" r="5.0" fill="#2563eb" stroke="#ffffff" stroke-width="1.5"/>
<circle cx="309.2" cy="189.0" r="5.0" fill="#2563eb" stroke="#ffffff" stroke-width="1.5"/>
<circle cx="447.7" cy="234.8" r="5.0" fill="#2563eb" stroke="#ffffff" stroke-width="1.5"/>
<circle cx="305.9" cy="247.0" r="5.0" fill="#2563eb" stroke="#ffffff" stroke-width="1.5"/>
<circle cx="368.2" cy="163.7" r="5.0" fill="#2563eb" stroke="#ffffff" stroke-width="1.5"/>
<circle cx="372.0" cy="251.2" r="5.0" fill="#2563eb" stroke="#ffffff" stroke-width="1.5"/>
<circle cx="276.3" cy="209.9" r="5.0" fill="#2563eb" stroke="#ffffff" stroke-width="1.5"/>
<circle cx="378.3" cy="214.7" r="5.0" fill="#2563eb" stroke="#ffffff" stroke-width="1.5"/>
<circle cx="327.6" cy="269.0" r="5.0" fill="#2563eb" stroke="#ffffff" stroke-width="1.5"/>
<circle cx="311.1" cy="159.6" r="5.0" fill="#2563eb" stroke="#ffffff" stroke-width="1.5"/>
<circle cx="399.9" cy="240.9" r="5.0" fill="#2563eb" stroke="#ffffff" stroke-width="1.5"/>
<circle cx="266.4" cy="245.6" r="5.0" fill="#2563eb" stroke="#ffffff" stroke-width="1.5"/>
<circle cx="370.5" cy="197.5" r="5.0" fill="#2563eb" stroke="#ffffff" stroke-width="1.5"/>
<circle cx="370.0" cy="278.4" r="5.0" fill="#2563eb" stroke="#ffffff" stroke-width="1.5"/>
<circle cx="322.4" cy="212.7" r="5.0" fill="#2563eb" stroke="#ffffff" stroke-width="1.5"/>
<circle cx="415.2" cy="215.9" r="5.0" fill="#2563eb" stroke="#ffffff" stroke-width="1.5"/>
<circle cx="291.1" cy="282.9" r="5.0" fill="#2563eb" stroke="#ffffff" stroke-width="1.5"/>
<circle cx="343.2" cy="185.7" r="5.0" fill="#2563eb" stroke="#ffffff" stroke-width="1.5"/>
<circle cx="418.4" cy="266.0" r="5.0" fill="#2563eb" stroke="#ffffff" stroke-width="1.5"/>
<circle cx="305.7" cy="226.7" r="5.0" fill="#2563eb" stroke="#ffffff" stroke-width="1.5"/>
<circle cx="404.3" cy="184.8" r="5.0" fill="#2563eb" stroke="#ffffff" stroke-width="1.5"/>
<circle cx="349.4" cy="248.8" r="5.0" fill="#2563eb" stroke="#ffffff" stroke-width="1.5"/>
<circle cx="305.0" cy="189.3" r="5.0" fill="#2563eb" stroke="#ffffff" stroke-width="1.5"/>
<circle cx="620.0" cy="110.0" r="9.0" fill="#dc2626" stroke="#ffffff" stroke-width="1.5"/>
<line x1="570.0" y1="70.0" x2="570.0" y2="330.0" stroke="#ea580c" stroke-width="2" stroke-dasharray="8 6"/>
<line x1="655.0" y1="70.0" x2="655.0" y2="330.0" stroke="#ea580c" stroke-width="2" stroke-dasharray="8 6"/>
<line x1="500.0" y1="150.0" x2="700.0" y2="150.0" stroke="#ea580c" stroke-width="2" stroke-dasharray="8 6"/>
<line x1="500.0" y1="70.0" x2="500.0" y2="330.0" stroke="#ea580c" stroke-width="2" stroke-dasharray="8 6"/>
<text x="620.0" y="55.0" class="node" text-anchor="middle">anomalie isolée vite</text>
<text x="350.0" y="350.0" class="node" text-anchor="middle">points normaux : chemin plus long</text>
</svg>
