<svg xmlns="http://www.w3.org/2000/svg" width="760" height="400" viewBox="0 0 760 400" role="img">
<style>
text { font-family: -apple-system, BlinkMacSystemFont, "Segoe UI", sans-serif; fill: #1f2937; }
.title { font-size: 24px; font-weight: 700; }
.subtitle { font-size: 14px; fill: #64748b; }
.label { font-size: 13px; fill: #64748b; }
.small { font-size: 12px; fill: #64748b; }
.node { font-size: 13px; font-weight: 650; }
</style>
<rect x="0" y="0" width="760" height="400" fill="#ffffff"/>
<text x="36.0" y="36.0" class="title" text-anchor="start">LOF : anomalie locale</text>
<text x="36.0" y="58.0" class="subtitle" text-anchor="start">Un point est suspect s'il est moins dense que ses voisins locaux.</text>
<circle cx="257.9" cy="254.5" r="5.0" fill="#2563eb" stroke="#ffffff" stroke-width="1.5"/>
<circle cx="235.9" cy="211.8" r="5.0" fill="#2563eb" stroke="#ffffff" stroke-width="1.5"/>
<circle cx="288.5" cy="216.9" r="5.0" fill="#2563eb" stroke="#ffffff" stroke-width="1.5"/>
<circle cx="210.9" cy="254.6" r="5.0" fill="#2563eb" stroke="#ffffff" stroke-width="1.5"/>
<circle cx="248.9" cy="195.5" r="5.0" fill="#2563eb" stroke="#ffffff" stroke-width="1.5"/>
<circle cx="287.3" cy="248.7" r="5.0" fill="#2563eb" stroke="#ffffff" stroke-width="1.5"/>
<circle cx="225.0" cy="219.3" r="5.0" fill="#2563eb" stroke="#ffffff" stroke-width="1.5"/>
<circle cx="284.7" cy="196.8" r="5.0" fill="#2563eb" stroke="#ffffff" stroke-width="1.5"/>
<circle cx="248.1" cy="233.9" r="5.0" fill="#2563eb" stroke="#ffffff" stroke-width="1.5"/>
<circle cx="226.4" cy="195.9" r="5.0" fill="#2563eb" stroke="#ffffff" stroke-width="1.5"/>
<circle cx="309.2" cy="228.0" r="5.0" fill="#2563eb" stroke="#ffffff" stroke-width="1.5"/>
<circle cx="222.9" cy="233.5" r="5.0" fill="#2563eb" stroke="#ffffff" stroke-width="1.5"/>
<circle cx="262.9" cy="180.2" r="5.0" fill="#2563eb" stroke="#ffffff" stroke-width="1.5"/>
<circle cx="262.4" cy="237.2" r="5.0" fill="#2563eb" stroke="#ffffff" stroke-width="1.5"/>
<circle cx="205.8" cy="209.0" r="5.0" fill="#2563eb" stroke="#ffffff" stroke-width="1.5"/>
<circle cx="266.9" cy="213.9" r="5.0" fill="#2563eb" stroke="#ffffff" stroke-width="1.5"/>
<circle cx="235.1" cy="248.3" r="5.0" fill="#2563eb" stroke="#ffffff" stroke-width="1.5"/>
<circle cx="228.3" cy="176.5" r="5.0" fill="#2563eb" stroke="#ffffff" stroke-width="1.5"/>
<circle cx="279.5" cy="231.1" r="5.0" fill="#2563eb" stroke="#ffffff" stroke-width="1.5"/>
<circle cx="198.6" cy="232.1" r="5.0" fill="#2563eb" stroke="#ffffff" stroke-width="1.5"/>
<circle cx="263.0" cy="202.7" r="5.0" fill="#2563eb" stroke="#ffffff" stroke-width="1.5"/>
<circle cx="260.6" cy="255.2" r="5.0" fill="#2563eb" stroke="#ffffff" stroke-width="1.5"/>
<circle cx="234.1" cy="211.8" r="5.0" fill="#2563eb" stroke="#ffffff" stroke-width="1.5"/>
<circle cx="289.6" cy="215.2" r="5.0" fill="#2563eb" stroke="#ffffff" stroke-width="1.5"/>
<circle cx="212.4" cy="257.0" r="5.0" fill="#2563eb" stroke="#ffffff" stroke-width="1.5"/>
<circle cx="247.1" cy="194.5" r="5.0" fill="#2563eb" stroke="#ffffff" stroke-width="1.5"/>
<circle cx="508.8" cy="272.0" r="5.0" fill="#16a34a" stroke="#ffffff" stroke-width="1.5"/>
<circle cx="502.7" cy="201.1" r="5.0" fill="#16a34a" stroke="#ffffff" stroke-width="1.5"/>
<circle cx="579.9" cy="230.2" r="5.0" fill="#16a34a" stroke="#ffffff" stroke-width="1.5"/>
<circle cx="440.2" cy="253.9" r="5.0" fill="#16a34a" stroke="#ffffff" stroke-width="1.5"/>
<circle cx="535.1" cy="183.7" r="5.0" fill="#16a34a" stroke="#ffffff" stroke-width="1.5"/>
<circle cx="556.0" cy="274.4" r="5.0" fill="#16a34a" stroke="#ffffff" stroke-width="1.5"/>
<circle cx="481.2" cy="209.0" r="5.0" fill="#16a34a" stroke="#ffffff" stroke-width="1.5"/>
<circle cx="586.9" cy="200.1" r="5.0" fill="#16a34a" stroke="#ffffff" stroke-width="1.5"/>
<circle cx="506.7" cy="241.1" r="5.0" fill="#16a34a" stroke="#ffffff" stroke-width="1.5"/>
<circle cx="500.8" cy="176.4" r="5.0" fill="#16a34a" stroke="#ffffff" stroke-width="1.5"/>
<circle cx="601.2" cy="253.2" r="5.0" fill="#16a34a" stroke="#ffffff" stroke-width="1.5"/>
<circle cx="469.3" cy="229.3" r="5.0" fill="#16a34a" stroke="#ffffff" stroke-width="1.5"/>
<circle cx="345.0" cy="280.0" r="9.0" fill="#dc2626" stroke="#ffffff" stroke-width="1.5"/>
<ellipse cx="250.0" cy="220.0" rx="120.0" ry="85.0" fill="none" stroke="#2563eb" stroke-width="2" opacity="0.8"/>
<ellipse cx="345.0" cy="280.0" rx="45.0" ry="35.0" fill="none" stroke="#dc2626" stroke-width="2" opacity="0.8"/>
<circle cx="610.0" cy="280.0" r="8.0" fill="#ea580c" stroke="#ffffff" stroke-width="1.5"/>
<text x="345.0" y="325.0" class="node" text-anchor="middle">LOF élevé : isolé localement</text>
<text x="555.0" y="325.0" class="small" text-anchor="middle">globalement pas si extrême</text>
</svg>
