<svg xmlns="http://www.w3.org/2000/svg" width="720" height="420" viewBox="0 0 720 420" role="img">
<style>
text { font-family: -apple-system, BlinkMacSystemFont, "Segoe UI", sans-serif; fill: #1f2937; }
.title { font-size: 24px; font-weight: 700; }
.subtitle { font-size: 14px; fill: #64748b; }
.label { font-size: 13px; fill: #64748b; }
.small { font-size: 12px; fill: #64748b; }
.node { font-size: 13px; font-weight: 650; }
</style>
<rect x="0" y="0" width="720" height="420" fill="#ffffff"/>
<text x="36.0" y="34.0" class="title" text-anchor="start">Sigmoïde : du score à la probabilité</text>
<text x="36.0" y="55.0" class="subtitle" text-anchor="start">Tout score linéaire z est ramené dans l'intervalle de probabilité [0, 1].</text>
<line x1="80.0" y1="353.0" x2="650.0" y2="353.0" stroke="#e5e7eb" stroke-width="1"/>
<text x="68.0" y="357.0" class="small" text-anchor="end">0</text>
<line x1="80.0" y1="279.2" x2="650.0" y2="279.2" stroke="#e5e7eb" stroke-width="1"/>
<text x="68.0" y="283.2" class="small" text-anchor="end">0.25</text>
<line x1="80.0" y1="205.5" x2="650.0" y2="205.5" stroke="#e5e7eb" stroke-width="1"/>
<text x="68.0" y="209.5" class="small" text-anchor="end">0.5</text>
<line x1="80.0" y1="131.8" x2="650.0" y2="131.8" stroke="#e5e7eb" stroke-width="1"/>
<text x="68.0" y="135.8" class="small" text-anchor="end">0.75</text>
<line x1="80.0" y1="58.0" x2="650.0" y2="58.0" stroke="#e5e7eb" stroke-width="1"/>
<text x="68.0" y="62.0" class="small" text-anchor="end">1</text>
<line x1="80.0" y1="58.0" x2="80.0" y2="353.0" stroke="#e5e7eb" stroke-width="1"/>
<text x="80.0" y="377.0" class="small" text-anchor="middle">-6</text>
<line x1="222.5" y1="58.0" x2="222.5" y2="353.0" stroke="#e5e7eb" stroke-width="1"/>
<text x="222.5" y="377.0" class="small" text-anchor="middle">-3</text>
<line x1="365.0" y1="58.0" x2="365.0" y2="353.0" stroke="#e5e7eb" stroke-width="1"/>
<text x="365.0" y="377.0" class="small" text-anchor="middle">0</text>
<line x1="507.5" y1="58.0" x2="507.5" y2="353.0" stroke="#e5e7eb" stroke-width="1"/>
<text x="507.5" y="377.0" class="small" text-anchor="middle">3</text>
<line x1="650.0" y1="58.0" x2="650.0" y2="353.0" stroke="#e5e7eb" stroke-width="1"/>
<text x="650.0" y="377.0" class="small" text-anchor="middle">6</text>
<line x1="80.0" y1="353.0" x2="650.0" y2="353.0" stroke="#1f2937" stroke-width="2"/>
<line x1="80.0" y1="58.0" x2="80.0" y2="353.0" stroke="#1f2937" stroke-width="2"/>
<line x1="80.0" y1="205.5" x2="650.0" y2="205.5" stroke="#ea580c" stroke-width="2" stroke-dasharray="6 6"/>
<line x1="365.0" y1="58.0" x2="365.0" y2="353.0" stroke="#ea580c" stroke-width="2" stroke-dasharray="6 6"/>
<polyline points="80.0,352.3 82.4,352.2 84.7,352.2 87.1,352.2 89.5,352.1 91.9,352.1 94.2,352.0 96.6,352.0 99.0,351.9 101.4,351.9 103.8,351.8 106.1,351.7 108.5,351.7 110.9,351.6 113.2,351.5 115.6,351.5 118.0,351.4 120.4,351.3 122.8,351.2 125.1,351.1 127.5,351.0 129.9,350.9 132.2,350.8 134.6,350.7 137.0,350.6 139.4,350.5 141.8,350.3 144.1,350.2 146.5,350.1 148.9,349.9 151.2,349.8 153.6,349.6 156.0,349.4 158.4,349.2 160.8,349.1 163.1,348.9 165.5,348.6 167.9,348.4 170.2,348.2 172.6,347.9 175.0,347.7 177.4,347.4 179.8,347.1 182.1,346.9 184.5,346.5 186.9,346.2 189.2,345.9 191.6,345.5 194.0,345.2 196.4,344.8 198.8,344.4 201.1,343.9 203.5,343.5 205.9,343.0 208.2,342.5 210.6,342.0 213.0,341.4 215.4,340.9 217.8,340.3 220.1,339.7 222.5,339.0 224.9,338.3 227.3,337.6 229.6,336.9 232.0,336.1 234.4,335.3 236.7,334.4 239.1,333.5 241.5,332.6 243.9,331.6 246.2,330.6 248.6,329.6 251.0,328.5 253.4,327.3 255.8,326.1 258.1,324.9 260.5,323.6 262.9,322.2 265.2,320.8 267.6,319.4 270.0,317.8 272.4,316.3 274.8,314.6 277.1,312.9 279.5,311.2 281.9,309.3 284.2,307.4 286.6,305.5 289.0,303.4 291.4,301.3 293.8,299.2 296.1,296.9 298.5,294.6 300.9,292.3 303.2,289.8 305.6,287.3 308.0,284.7 310.4,282.1 312.8,279.3 315.1,276.5 317.5,273.7 319.9,270.7 322.2,267.7 324.6,264.7 327.0,261.5 329.4,258.4 331.8,255.1 334.1,251.8 336.5,248.5 338.9,245.1 341.2,241.6 343.6,238.1 346.0,234.6 348.4,231.1 350.8,227.5 353.1,223.8 355.5,220.2 357.9,216.5 360.2,212.9 362.6,209.2 365.0,205.5 367.4,201.8 369.8,198.1 372.1,194.5 374.5,190.8 376.9,187.2 379.2,183.5 381.6,179.9 384.0,176.4 386.4,172.9 388.8,169.4 391.1,165.9 393.5,162.5 395.9,159.2 398.2,155.9 400.6,152.6 403.0,149.5 405.4,146.3 407.8,143.3 410.1,140.3 412.5,137.3 414.9,134.5 417.2,131.7 419.6,128.9 422.0,126.3 424.4,123.7 426.7,121.2 429.1,118.7 431.5,116.4 433.9,114.1 436.2,111.8 438.6,109.7 441.0,107.6 443.4,105.5 445.8,103.6 448.1,101.7 450.5,99.8 452.9,98.1 455.2,96.4 457.6,94.7 460.0,93.2 462.4,91.6 464.7,90.2 467.1,88.8 469.5,87.4 471.9,86.1 474.3,84.9 476.6,83.7 479.0,82.5 481.4,81.4 483.8,80.4 486.1,79.4 488.5,78.4 490.9,77.5 493.2,76.6 495.6,75.7 498.0,74.9 500.4,74.1 502.8,73.4 505.1,72.7 507.5,72.0 509.9,71.3 512.2,70.7 514.6,70.1 517.0,69.6 519.4,69.0 521.8,68.5 524.1,68.0 526.5,67.5 528.9,67.1 531.2,66.6 533.6,66.2 536.0,65.8 538.4,65.5 540.8,65.1 543.1,64.8 545.5,64.5 547.9,64.1 550.2,63.9 552.6,63.6 555.0,63.3 557.4,63.1 559.8,62.8 562.1,62.6 564.5,62.4 566.9,62.1 569.2,61.9 571.6,61.8 574.0,61.6 576.4,61.4 578.8,61.2 581.1,61.1 583.5,60.9 585.9,60.8 588.2,60.7 590.6,60.5 593.0,60.4 595.4,60.3 597.8,60.2 600.1,60.1 602.5,60.0 604.9,59.9 607.2,59.8 609.6,59.7 612.0,59.6 614.4,59.5 616.8,59.5 619.1,59.4 621.5,59.3 623.9,59.3 626.2,59.2 628.6,59.1 631.0,59.1 633.4,59.0 635.8,59.0 638.1,58.9 640.5,58.9 642.9,58.8 645.2,58.8 647.6,58.8 650.0,58.7" fill="none" stroke="#2563eb" stroke-width="4" stroke-linecap="round" stroke-linejoin="round"/>
<circle cx="365.0" cy="205.5" r="5.0" fill="#ea580c" stroke="#ffffff" stroke-width="1.5"/>
<text x="377.0" y="193.5" class="label" text-anchor="start">z = 0, P = 0.5</text>
<text x="365.0" y="395.0" class="label" text-anchor="middle">score linéaire z</text>
<text x="25.0" y="205.5" class="label" text-anchor="middle">probabilité</text>
</svg>
