<svg xmlns="http://www.w3.org/2000/svg" width="720" height="430" viewBox="0 0 720 430" role="img">
<style>
text { font-family: -apple-system, BlinkMacSystemFont, "Segoe UI", sans-serif; fill: #1f2937; }
.title { font-size: 24px; font-weight: 700; }
.subtitle { font-size: 14px; fill: #64748b; }
.label { font-size: 13px; fill: #64748b; }
.small { font-size: 12px; fill: #64748b; }
.node { font-size: 13px; font-weight: 650; }
</style>
<rect x="0" y="0" width="720" height="430" fill="#ffffff"/>
<text x="36.0" y="36.0" class="title" text-anchor="start">Logistic regression decision boundary</text>
<text x="36.0" y="57.0" class="subtitle" text-anchor="start">The model predicts class 1 on one side of the line and class 0 on the other.</text>
<polygon points="70.0,326.5 592.0,70.0 650.0,70.0 650.0,355.0 70.0,355.0" fill="#fee2e2" opacity="0.8"/>
<polygon points="70.0,70.0 70.0,326.5 592.0,70.0" fill="#dbeafe" opacity="0.8"/>
<line x1="70.0" y1="70.0" x2="70.0" y2="355.0" stroke="#e5e7eb" stroke-width="1"/>
<line x1="70.0" y1="355.0" x2="650.0" y2="355.0" stroke="#e5e7eb" stroke-width="1"/>
<line x1="186.0" y1="70.0" x2="186.0" y2="355.0" stroke="#e5e7eb" stroke-width="1"/>
<line x1="70.0" y1="298.0" x2="650.0" y2="298.0" stroke="#e5e7eb" stroke-width="1"/>
<line x1="302.0" y1="70.0" x2="302.0" y2="355.0" stroke="#e5e7eb" stroke-width="1"/>
<line x1="70.0" y1="241.0" x2="650.0" y2="241.0" stroke="#e5e7eb" stroke-width="1"/>
<line x1="418.0" y1="70.0" x2="418.0" y2="355.0" stroke="#e5e7eb" stroke-width="1"/>
<line x1="70.0" y1="184.0" x2="650.0" y2="184.0" stroke="#e5e7eb" stroke-width="1"/>
<line x1="534.0" y1="70.0" x2="534.0" y2="355.0" stroke="#e5e7eb" stroke-width="1"/>
<line x1="70.0" y1="127.0" x2="650.0" y2="127.0" stroke="#e5e7eb" stroke-width="1"/>
<line x1="650.0" y1="70.0" x2="650.0" y2="355.0" stroke="#e5e7eb" stroke-width="1"/>
<line x1="70.0" y1="70.0" x2="650.0" y2="70.0" stroke="#e5e7eb" stroke-width="1"/>
<line x1="70.0" y1="355.0" x2="650.0" y2="355.0" stroke="#1f2937" stroke-width="2"/>
<line x1="70.0" y1="70.0" x2="70.0" y2="355.0" stroke="#1f2937" stroke-width="2"/>
<line x1="70.0" y1="326.5" x2="592.0" y2="70.0" stroke="#ea580c" stroke-width="4"/>
<text x="354.2" y="174.8" class="label" text-anchor="middle">P = 0.5 boundary</text>
<circle cx="128.0" cy="109.9" r="7.0" fill="#2563eb" stroke="#ffffff" stroke-width="1.5"/>
<circle cx="168.6" cy="149.8" r="7.0" fill="#2563eb" stroke="#ffffff" stroke-width="1.5"/>
<circle cx="220.8" cy="132.7" r="7.0" fill="#2563eb" stroke="#ffffff" stroke-width="1.5"/>
<circle cx="255.6" cy="104.2" r="7.0" fill="#2563eb" stroke="#ffffff" stroke-width="1.5"/>
<circle cx="325.2" cy="98.5" r="7.0" fill="#2563eb" stroke="#ffffff" stroke-width="1.5"/>
<circle cx="197.6" cy="189.7" r="7.0" fill="#2563eb" stroke="#ffffff" stroke-width="1.5"/>
<circle cx="354.2" cy="141.2" r="7.0" fill="#2563eb" stroke="#ffffff" stroke-width="1.5"/>
<circle cx="418.0" cy="275.2" r="7.0" fill="#dc2626" stroke="#ffffff" stroke-width="1.5"/>
<circle cx="481.8" cy="266.6" r="7.0" fill="#dc2626" stroke="#ffffff" stroke-width="1.5"/>
<circle cx="534.0" cy="306.6" r="7.0" fill="#dc2626" stroke="#ffffff" stroke-width="1.5"/>
<circle cx="568.8" cy="235.3" r="7.0" fill="#dc2626" stroke="#ffffff" stroke-width="1.5"/>
<circle cx="470.2" cy="209.7" r="7.0" fill="#dc2626" stroke="#ffffff" stroke-width="1.5"/>
<circle cx="377.4" cy="243.8" r="7.0" fill="#dc2626" stroke="#ffffff" stroke-width="1.5"/>
<circle cx="597.8" cy="280.9" r="7.0" fill="#dc2626" stroke="#ffffff" stroke-width="1.5"/>
<text x="112.0" y="95.0" class="label" text-anchor="start">Predicted 0</text>
<text x="545.0" y="330.0" class="label" text-anchor="start">Predicted 1</text>
<text x="360.0" y="398.0" class="label" text-anchor="middle">feature x1</text>
<text x="22.0" y="212.5" class="label" text-anchor="middle">feature x2</text>
</svg>
