<svg xmlns="http://www.w3.org/2000/svg" width="720" height="420" viewBox="0 0 720 420" role="img">
<style>
text { font-family: -apple-system, BlinkMacSystemFont, "Segoe UI", sans-serif; fill: #1f2937; }
.title { font-size: 24px; font-weight: 700; }
.subtitle { font-size: 14px; fill: #64748b; }
.label { font-size: 13px; fill: #64748b; }
.small { font-size: 12px; fill: #64748b; }
.node { font-size: 13px; font-weight: 650; }
</style>
<rect x="0" y="0" width="720" height="420" fill="#ffffff"/>
<text x="36.0" y="36.0" class="title" text-anchor="start">Compromis de seuil</text>
<text x="36.0" y="58.0" class="subtitle" text-anchor="start">Augmenter le seuil augmente souvent la precision et diminue le recall.</text>
<line x1="78.0" y1="345.0" x2="648.0" y2="345.0" stroke="#e5e7eb" stroke-width="1"/>
<text x="68.0" y="349.0" class="small" text-anchor="end">0</text>
<line x1="78.0" y1="276.2" x2="648.0" y2="276.2" stroke="#e5e7eb" stroke-width="1"/>
<text x="68.0" y="280.2" class="small" text-anchor="end">0.25</text>
<line x1="78.0" y1="207.5" x2="648.0" y2="207.5" stroke="#e5e7eb" stroke-width="1"/>
<text x="68.0" y="211.5" class="small" text-anchor="end">0.5</text>
<line x1="78.0" y1="138.8" x2="648.0" y2="138.8" stroke="#e5e7eb" stroke-width="1"/>
<text x="68.0" y="142.8" class="small" text-anchor="end">0.75</text>
<line x1="78.0" y1="70.0" x2="648.0" y2="70.0" stroke="#e5e7eb" stroke-width="1"/>
<text x="68.0" y="74.0" class="small" text-anchor="end">1</text>
<line x1="78.0" y1="70.0" x2="78.0" y2="345.0" stroke="#e5e7eb" stroke-width="1"/>
<text x="78.0" y="369.0" class="small" text-anchor="middle">0.1</text>
<line x1="220.5" y1="70.0" x2="220.5" y2="345.0" stroke="#e5e7eb" stroke-width="1"/>
<text x="220.5" y="369.0" class="small" text-anchor="middle">0.3</text>
<line x1="363.0" y1="70.0" x2="363.0" y2="345.0" stroke="#e5e7eb" stroke-width="1"/>
<text x="363.0" y="369.0" class="small" text-anchor="middle">0.5</text>
<line x1="505.5" y1="70.0" x2="505.5" y2="345.0" stroke="#e5e7eb" stroke-width="1"/>
<text x="505.5" y="369.0" class="small" text-anchor="middle">0.7</text>
<line x1="648.0" y1="70.0" x2="648.0" y2="345.0" stroke="#e5e7eb" stroke-width="1"/>
<text x="648.0" y="369.0" class="small" text-anchor="middle">0.9</text>
<line x1="78.0" y1="345.0" x2="648.0" y2="345.0" stroke="#1f2937" stroke-width="2"/>
<line x1="78.0" y1="70.0" x2="78.0" y2="345.0" stroke="#1f2937" stroke-width="2"/>
<polyline points="78.0,232.6 85.1,232.1 92.2,231.5 99.4,230.9 106.5,230.3 113.6,229.6 120.8,228.8 127.9,228.0 135.0,227.2 142.1,226.3 149.2,225.4 156.4,224.4 163.5,223.4 170.6,222.3 177.8,221.1 184.9,219.9 192.0,218.6 199.1,217.3 206.2,215.9 213.4,214.4 220.5,212.8 227.6,211.2 234.8,209.5 241.9,207.7 249.0,205.9 256.1,203.9 263.2,201.9 270.4,199.9 277.5,197.7 284.6,195.5 291.8,193.2 298.9,190.9 306.0,188.5 313.1,186.0 320.3,183.5 327.4,181.0 334.5,178.3 341.6,175.7 348.8,173.0 355.9,170.3 363.0,167.6 370.1,164.9 377.2,162.1 384.4,159.4 391.5,156.6 398.6,153.9 405.8,151.2 412.9,148.5 420.0,145.9 427.1,143.3 434.2,140.7 441.4,138.2 448.5,135.8 455.6,133.4 462.8,131.0 469.9,128.7 477.0,126.5 484.1,124.4 491.3,122.3 498.4,120.3 505.5,118.4 512.6,116.5 519.8,114.8 526.9,113.1 534.0,111.4 541.1,109.9 548.2,108.4 555.4,107.0 562.5,105.6 569.6,104.3 576.8,103.1 583.9,101.9 591.0,100.9 598.1,99.8 605.2,98.8 612.4,97.9 619.5,97.0 626.6,96.2 633.8,95.4 640.9,94.7 648.0,94.0" fill="none" stroke="#2563eb" stroke-width="4" stroke-linecap="round" stroke-linejoin="round"/>
<polyline points="78.0,92.2 85.1,92.8 92.2,93.5 99.4,94.3 106.5,95.2 113.6,96.0 120.8,97.0 127.9,98.0 135.0,99.1 142.1,100.3 149.2,101.6 156.4,102.9 163.5,104.4 170.6,105.9 177.8,107.6 184.9,109.3 192.0,111.2 199.1,113.1 206.2,115.2 213.4,117.4 220.5,119.8 227.6,122.2 234.8,124.8 241.9,127.6 249.0,130.4 256.1,133.4 263.2,136.5 270.4,139.8 277.5,143.1 284.6,146.6 291.8,150.3 298.9,154.0 306.0,157.8 313.1,161.7 320.3,165.7 327.4,169.8 334.5,174.0 341.6,178.2 348.8,182.4 355.9,186.7 363.0,191.0 370.1,195.3 377.2,199.6 384.4,203.8 391.5,208.0 398.6,212.2 405.8,216.3 412.9,220.3 420.0,224.2 427.1,228.0 434.2,231.7 441.4,235.4 448.5,238.9 455.6,242.2 462.8,245.5 469.9,248.6 477.0,251.6 484.1,254.4 491.3,257.2 498.4,259.8 505.5,262.2 512.6,264.6 519.8,266.8 526.9,268.9 534.0,270.8 541.1,272.7 548.2,274.4 555.4,276.1 562.5,277.6 569.6,279.1 576.8,280.4 583.9,281.7 591.0,282.9 598.1,284.0 605.2,285.0 612.4,286.0 619.5,286.8 626.6,287.7 633.8,288.5 640.9,289.2 648.0,289.8" fill="none" stroke="#dc2626" stroke-width="4" stroke-linecap="round" stroke-linejoin="round"/>
<text x="505.0" y="140.0" class="node" text-anchor="start">Precision</text>
<text x="180.0" y="130.0" class="node" text-anchor="start">Recall</text>
<text x="363.0" y="390.0" class="label" text-anchor="middle">seuil de décision</text>
</svg>
