<svg xmlns="http://www.w3.org/2000/svg" width="760" height="460" viewBox="0 0 760 460" role="img">
<style>
text { font-family: -apple-system, BlinkMacSystemFont, "Segoe UI", sans-serif; fill: #1f2937; }
.title { font-size: 24px; font-weight: 700; }
.subtitle { font-size: 14px; fill: #64748b; }
.label { font-size: 13px; fill: #64748b; }
.small { font-size: 12px; fill: #64748b; }
.node { font-size: 13px; font-weight: 650; }
</style>
<rect x="0" y="0" width="760" height="460" fill="#ffffff"/>
<defs>
<marker id="arrow" viewBox="0 0 10 10" refX="9" refY="5" markerWidth="7" markerHeight="7" orient="auto-start-reverse">
<path d="M 0 0 L 10 5 L 0 10 z" fill="#64748b"/>
</marker>
</defs>
<text x="36.0" y="36.0" class="title" text-anchor="start">Structure d'un arbre de décision</text>
<text x="36.0" y="58.0" class="subtitle" text-anchor="start">Une prédiction se fait en suivant les règles de la racine vers une feuille.</text>
<line x1="380.0" y1="129.0" x2="240.0" y2="205.0" stroke="#64748b" stroke-width="2" marker-end="url(#arrow)"/>
<line x1="380.0" y1="129.0" x2="520.0" y2="205.0" stroke="#64748b" stroke-width="2" marker-end="url(#arrow)"/>
<line x1="240.0" y1="234.0" x2="135.0" y2="325.0" stroke="#64748b" stroke-width="2" marker-end="url(#arrow)"/>
<line x1="240.0" y1="234.0" x2="345.0" y2="325.0" stroke="#64748b" stroke-width="2" marker-end="url(#arrow)"/>
<text x="292.0" y="176.0" class="small" text-anchor="middle">oui</text>
<text x="468.0" y="176.0" class="small" text-anchor="middle">non</text>
<text x="184.0" y="296.0" class="small" text-anchor="middle">oui</text>
<text x="300.0" y="296.0" class="small" text-anchor="middle">non</text>
<rect x="285.0" y="71.0" width="190.0" height="58.0" rx="10.0" fill="#dbeafe" stroke="#2563eb" stroke-width="2"/>
<text x="380.0" y="105.0" class="node" text-anchor="middle">Âge &lt;= 30 ?</text>
<rect x="145.0" y="176.0" width="190.0" height="58.0" rx="10.0" fill="#ede9fe" stroke="#7c3aed" stroke-width="2"/>
<text x="240.0" y="210.0" class="node" text-anchor="middle">Revenu &gt; 50k ?</text>
<rect x="425.0" y="176.0" width="190.0" height="58.0" rx="10.0" fill="#dcfce7" stroke="#16a34a" stroke-width="2"/>
<text x="520.0" y="210.0" class="node" text-anchor="middle">Classe = 0</text>
<rect x="60.0" y="296.0" width="150.0" height="58.0" rx="10.0" fill="#dcfce7" stroke="#16a34a" stroke-width="2"/>
<text x="135.0" y="330.0" class="node" text-anchor="middle">Classe = 1</text>
<rect x="270.0" y="296.0" width="150.0" height="58.0" rx="10.0" fill="#dcfce7" stroke="#16a34a" stroke-width="2"/>
<text x="345.0" y="330.0" class="node" text-anchor="middle">Classe = 0</text>
<text x="380.0" y="155.0" class="small" text-anchor="middle">noeud racine</text>
<text x="240.0" y="260.0" class="small" text-anchor="middle">noeud interne</text>
<text x="520.0" y="260.0" class="small" text-anchor="middle">feuille</text>
</svg>
