<svg xmlns="http://www.w3.org/2000/svg" width="850" height="460" viewBox="0 0 850 460" role="img">
<style>
text { font-family: -apple-system, BlinkMacSystemFont, "Segoe UI", sans-serif; fill: #1f2937; }
.title { font-size: 24px; font-weight: 700; }
.subtitle { font-size: 14px; fill: #64748b; }
.label { font-size: 13px; fill: #64748b; }
.small { font-size: 12px; fill: #64748b; }
.node { font-size: 13px; font-weight: 650; }
</style>
<rect x="0" y="0" width="850" height="460" fill="#ffffff"/>
<defs>
<marker id="arrow" viewBox="0 0 10 10" refX="9" refY="5" markerWidth="7" markerHeight="7" orient="auto-start-reverse">
<path d="M 0 0 L 10 5 L 0 10 z" fill="#64748b"/>
</marker>
</defs>
<text x="36.0" y="36.0" class="title" text-anchor="start">Random forest = bagging + random features + voting</text>
<text x="36.0" y="58.0" class="subtitle" text-anchor="start">Bootstrap samples train diverse trees; their predictions are aggregated.</text>
<rect x="35.0" y="150.0" width="120.0" height="145.0" rx="10.0" fill="#f8fafc" stroke="#cbd5e1" stroke-width="1.5"/>
<text x="95.0" y="135.0" class="node" text-anchor="middle">Original data</text>
<circle cx="58.0" cy="170.0" r="5.0" fill="#dc2626" stroke="#ffffff" stroke-width="1.5"/>
<circle cx="81.0" cy="170.0" r="5.0" fill="#2563eb" stroke="#ffffff" stroke-width="1.5"/>
<circle cx="104.0" cy="170.0" r="5.0" fill="#2563eb" stroke="#ffffff" stroke-width="1.5"/>
<circle cx="127.0" cy="170.0" r="5.0" fill="#dc2626" stroke="#ffffff" stroke-width="1.5"/>
<circle cx="58.0" cy="189.0" r="5.0" fill="#2563eb" stroke="#ffffff" stroke-width="1.5"/>
<circle cx="81.0" cy="189.0" r="5.0" fill="#2563eb" stroke="#ffffff" stroke-width="1.5"/>
<circle cx="104.0" cy="189.0" r="5.0" fill="#dc2626" stroke="#ffffff" stroke-width="1.5"/>
<circle cx="127.0" cy="189.0" r="5.0" fill="#2563eb" stroke="#ffffff" stroke-width="1.5"/>
<circle cx="58.0" cy="208.0" r="5.0" fill="#2563eb" stroke="#ffffff" stroke-width="1.5"/>
<circle cx="81.0" cy="208.0" r="5.0" fill="#dc2626" stroke="#ffffff" stroke-width="1.5"/>
<circle cx="104.0" cy="208.0" r="5.0" fill="#2563eb" stroke="#ffffff" stroke-width="1.5"/>
<circle cx="127.0" cy="208.0" r="5.0" fill="#2563eb" stroke="#ffffff" stroke-width="1.5"/>
<circle cx="58.0" cy="227.0" r="5.0" fill="#dc2626" stroke="#ffffff" stroke-width="1.5"/>
<circle cx="81.0" cy="227.0" r="5.0" fill="#2563eb" stroke="#ffffff" stroke-width="1.5"/>
<circle cx="104.0" cy="227.0" r="5.0" fill="#2563eb" stroke="#ffffff" stroke-width="1.5"/>
<circle cx="127.0" cy="227.0" r="5.0" fill="#dc2626" stroke="#ffffff" stroke-width="1.5"/>
<circle cx="58.0" cy="246.0" r="5.0" fill="#2563eb" stroke="#ffffff" stroke-width="1.5"/>
<circle cx="81.0" cy="246.0" r="5.0" fill="#2563eb" stroke="#ffffff" stroke-width="1.5"/>
<circle cx="104.0" cy="246.0" r="5.0" fill="#dc2626" stroke="#ffffff" stroke-width="1.5"/>
<circle cx="127.0" cy="246.0" r="5.0" fill="#2563eb" stroke="#ffffff" stroke-width="1.5"/>
<circle cx="58.0" cy="265.0" r="5.0" fill="#2563eb" stroke="#ffffff" stroke-width="1.5"/>
<circle cx="81.0" cy="265.0" r="5.0" fill="#dc2626" stroke="#ffffff" stroke-width="1.5"/>
<circle cx="104.0" cy="265.0" r="5.0" fill="#2563eb" stroke="#ffffff" stroke-width="1.5"/>
<circle cx="127.0" cy="265.0" r="5.0" fill="#2563eb" stroke="#ffffff" stroke-width="1.5"/>
<line x1="160.0" y1="220.0" x2="245.0" y2="135.0" stroke="#64748b" stroke-width="2" marker-end="url(#arrow)"/>
<line x1="160.0" y1="220.0" x2="245.0" y2="220.0" stroke="#64748b" stroke-width="2" marker-end="url(#arrow)"/>
<line x1="160.0" y1="220.0" x2="245.0" y2="305.0" stroke="#64748b" stroke-width="2" marker-end="url(#arrow)"/>
<rect x="250.0" y="95.0" width="155.0" height="65.0" rx="9.0" fill="#dbeafe" stroke="#2563eb" stroke-width="1.5"/>
<text x="327.0" y="124.0" class="node" text-anchor="middle">Bootstrap sample 1</text>
<text x="327.0" y="144.0" class="small" text-anchor="middle">sample with replacement</text>
<line x1="410.0" y1="127.0" x2="500.0" y2="127.0" stroke="#64748b" stroke-width="2" marker-end="url(#arrow)"/>
<circle cx="555.0" cy="115.0" r="12.0" fill="#7c3aed" stroke="#ffffff" stroke-width="1.5"/>
<line x1="555.0" y1="127.0" x2="525.0" y2="155.0" stroke="#64748b" stroke-width="2"/>
<line x1="555.0" y1="127.0" x2="585.0" y2="155.0" stroke="#64748b" stroke-width="2"/>
<circle cx="525.0" cy="155.0" r="10.0" fill="#16a34a" stroke="#ffffff" stroke-width="1.5"/>
<circle cx="585.0" cy="155.0" r="10.0" fill="#16a34a" stroke="#ffffff" stroke-width="1.5"/>
<text x="555.0" y="184.0" class="small" text-anchor="middle">Tree 1</text>
<line x1="610.0" y1="127.0" x2="695.0" y2="220.0" stroke="#64748b" stroke-width="2" marker-end="url(#arrow)"/>
<rect x="250.0" y="180.0" width="155.0" height="65.0" rx="9.0" fill="#dbeafe" stroke="#2563eb" stroke-width="1.5"/>
<text x="327.0" y="209.0" class="node" text-anchor="middle">Bootstrap sample 2</text>
<text x="327.0" y="229.0" class="small" text-anchor="middle">sample with replacement</text>
<line x1="410.0" y1="212.0" x2="500.0" y2="212.0" stroke="#64748b" stroke-width="2" marker-end="url(#arrow)"/>
<circle cx="555.0" cy="200.0" r="12.0" fill="#7c3aed" stroke="#ffffff" stroke-width="1.5"/>
<line x1="555.0" y1="212.0" x2="525.0" y2="240.0" stroke="#64748b" stroke-width="2"/>
<line x1="555.0" y1="212.0" x2="585.0" y2="240.0" stroke="#64748b" stroke-width="2"/>
<circle cx="525.0" cy="240.0" r="10.0" fill="#16a34a" stroke="#ffffff" stroke-width="1.5"/>
<circle cx="585.0" cy="240.0" r="10.0" fill="#16a34a" stroke="#ffffff" stroke-width="1.5"/>
<text x="555.0" y="269.0" class="small" text-anchor="middle">Tree 2</text>
<line x1="610.0" y1="212.0" x2="695.0" y2="220.0" stroke="#64748b" stroke-width="2" marker-end="url(#arrow)"/>
<rect x="250.0" y="265.0" width="155.0" height="65.0" rx="9.0" fill="#dbeafe" stroke="#2563eb" stroke-width="1.5"/>
<text x="327.0" y="294.0" class="node" text-anchor="middle">Bootstrap sample 3</text>
<text x="327.0" y="314.0" class="small" text-anchor="middle">sample with replacement</text>
<line x1="410.0" y1="297.0" x2="500.0" y2="297.0" stroke="#64748b" stroke-width="2" marker-end="url(#arrow)"/>
<circle cx="555.0" cy="285.0" r="12.0" fill="#7c3aed" stroke="#ffffff" stroke-width="1.5"/>
<line x1="555.0" y1="297.0" x2="525.0" y2="325.0" stroke="#64748b" stroke-width="2"/>
<line x1="555.0" y1="297.0" x2="585.0" y2="325.0" stroke="#64748b" stroke-width="2"/>
<circle cx="525.0" cy="325.0" r="10.0" fill="#16a34a" stroke="#ffffff" stroke-width="1.5"/>
<circle cx="585.0" cy="325.0" r="10.0" fill="#16a34a" stroke="#ffffff" stroke-width="1.5"/>
<text x="555.0" y="354.0" class="small" text-anchor="middle">Tree 3</text>
<line x1="610.0" y1="297.0" x2="695.0" y2="220.0" stroke="#64748b" stroke-width="2" marker-end="url(#arrow)"/>
<rect x="700.0" y="175.0" width="115.0" height="90.0" rx="10.0" fill="#dcfce7" stroke="#16a34a" stroke-width="2"/>
<text x="757.0" y="210.0" class="node" text-anchor="middle">Majority</text>
<text x="757.0" y="232.0" class="node" text-anchor="middle">vote</text>
<text x="757.0" y="290.0" class="small" text-anchor="middle">classification</text>
<text x="757.0" y="310.0" class="small" text-anchor="middle">or average for regression</text>
</svg>
