<svg xmlns="http://www.w3.org/2000/svg" width="820" height="420" viewBox="0 0 820 420" role="img">
<style>
text { font-family: -apple-system, BlinkMacSystemFont, "Segoe UI", sans-serif; fill: #1f2937; }
.title { font-size: 24px; font-weight: 700; }
.subtitle { font-size: 14px; fill: #64748b; }
.label { font-size: 13px; fill: #64748b; }
.small { font-size: 12px; fill: #64748b; }
.node { font-size: 13px; font-weight: 650; }
</style>
<rect x="0" y="0" width="820" height="420" fill="#ffffff"/>
<defs>
<marker id="arrow" viewBox="0 0 10 10" refX="9" refY="5" markerWidth="7" markerHeight="7" orient="auto-start-reverse">
<path d="M 0 0 L 10 5 L 0 10 z" fill="#64748b"/>
</marker>
</defs>
<text x="36.0" y="36.0" class="title" text-anchor="start">Random feature selection at each split</text>
<text x="36.0" y="58.0" class="subtitle" text-anchor="start">Each node sees only a subset of features, which decorrelates trees.</text>
<text x="55.0" y="95.0" class="node" text-anchor="start">All features</text>
<rect x="55.0" y="110.0" width="72.0" height="38.0" rx="7.0" fill="#f8fafc" stroke="#cbd5e1" stroke-width="1.2"/>
<text x="91.0" y="134.0" class="small" text-anchor="middle">age</text>
<rect x="141.0" y="110.0" width="72.0" height="38.0" rx="7.0" fill="#f8fafc" stroke="#cbd5e1" stroke-width="1.2"/>
<text x="177.0" y="134.0" class="small" text-anchor="middle">income</text>
<rect x="227.0" y="110.0" width="72.0" height="38.0" rx="7.0" fill="#f8fafc" stroke="#cbd5e1" stroke-width="1.2"/>
<text x="263.0" y="134.0" class="small" text-anchor="middle">city</text>
<rect x="313.0" y="110.0" width="72.0" height="38.0" rx="7.0" fill="#f8fafc" stroke="#cbd5e1" stroke-width="1.2"/>
<text x="349.0" y="134.0" class="small" text-anchor="middle">device</text>
<rect x="399.0" y="110.0" width="72.0" height="38.0" rx="7.0" fill="#f8fafc" stroke="#cbd5e1" stroke-width="1.2"/>
<text x="435.0" y="134.0" class="small" text-anchor="middle">visits</text>
<rect x="485.0" y="110.0" width="72.0" height="38.0" rx="7.0" fill="#f8fafc" stroke="#cbd5e1" stroke-width="1.2"/>
<text x="521.0" y="134.0" class="small" text-anchor="middle">price</text>
<rect x="571.0" y="110.0" width="72.0" height="38.0" rx="7.0" fill="#f8fafc" stroke="#cbd5e1" stroke-width="1.2"/>
<text x="607.0" y="134.0" class="small" text-anchor="middle">gender</text>
<rect x="657.0" y="110.0" width="72.0" height="38.0" rx="7.0" fill="#f8fafc" stroke="#cbd5e1" stroke-width="1.2"/>
<text x="693.0" y="134.0" class="small" text-anchor="middle">score</text>
<line x1="385.0" y1="158.0" x2="215.0" y2="225.0" stroke="#64748b" stroke-width="2" marker-end="url(#arrow)"/>
<line x1="385.0" y1="158.0" x2="405.0" y2="225.0" stroke="#64748b" stroke-width="2" marker-end="url(#arrow)"/>
<line x1="385.0" y1="158.0" x2="595.0" y2="225.0" stroke="#64748b" stroke-width="2" marker-end="url(#arrow)"/>
<rect x="90.0" y="225.0" width="180.0" height="115.0" rx="10.0" fill="#dbeafe" stroke="#2563eb" stroke-width="2"/>
<text x="180.0" y="249.0" class="node" text-anchor="middle">Random subset 1</text>
<rect x="110.0" y="270.0" width="45.0" height="32.0" rx="6.0" fill="#ffffff" stroke="#cbd5e1" stroke-width="1.1"/>
<text x="132.0" y="291.0" class="small" text-anchor="middle">age</text>
<rect x="162.0" y="270.0" width="45.0" height="32.0" rx="6.0" fill="#ffffff" stroke="#cbd5e1" stroke-width="1.1"/>
<text x="184.0" y="291.0" class="small" text-anchor="middle">city</text>
<rect x="214.0" y="270.0" width="45.0" height="32.0" rx="6.0" fill="#ffffff" stroke="#cbd5e1" stroke-width="1.1"/>
<text x="236.0" y="291.0" class="small" text-anchor="middle">score</text>
<text x="180.0" y="322.0" class="small" text-anchor="middle">Node A chooses best split</text>
<rect x="310.0" y="225.0" width="180.0" height="115.0" rx="10.0" fill="#ede9fe" stroke="#7c3aed" stroke-width="2"/>
<text x="400.0" y="249.0" class="node" text-anchor="middle">Random subset 2</text>
<rect x="330.0" y="270.0" width="45.0" height="32.0" rx="6.0" fill="#ffffff" stroke="#cbd5e1" stroke-width="1.1"/>
<text x="352.0" y="291.0" class="small" text-anchor="middle">income</text>
<rect x="382.0" y="270.0" width="45.0" height="32.0" rx="6.0" fill="#ffffff" stroke="#cbd5e1" stroke-width="1.1"/>
<text x="404.0" y="291.0" class="small" text-anchor="middle">visits</text>
<rect x="434.0" y="270.0" width="45.0" height="32.0" rx="6.0" fill="#ffffff" stroke="#cbd5e1" stroke-width="1.1"/>
<text x="456.0" y="291.0" class="small" text-anchor="middle">price</text>
<text x="400.0" y="322.0" class="small" text-anchor="middle">Node B sees another subset</text>
<rect x="530.0" y="225.0" width="180.0" height="115.0" rx="10.0" fill="#ccfbf1" stroke="#0f766e" stroke-width="2"/>
<text x="620.0" y="249.0" class="node" text-anchor="middle">Random subset 3</text>
<rect x="550.0" y="270.0" width="45.0" height="32.0" rx="6.0" fill="#ffffff" stroke="#cbd5e1" stroke-width="1.1"/>
<text x="572.0" y="291.0" class="small" text-anchor="middle">device</text>
<rect x="602.0" y="270.0" width="45.0" height="32.0" rx="6.0" fill="#ffffff" stroke="#cbd5e1" stroke-width="1.1"/>
<text x="624.0" y="291.0" class="small" text-anchor="middle">price</text>
<rect x="654.0" y="270.0" width="45.0" height="32.0" rx="6.0" fill="#ffffff" stroke="#cbd5e1" stroke-width="1.1"/>
<text x="676.0" y="291.0" class="small" text-anchor="middle">gender</text>
<text x="620.0" y="322.0" class="small" text-anchor="middle">Node C sees another subset</text>
<text x="410.0" y="385.0" class="node" text-anchor="middle">Less correlation between trees = better averaging</text>
</svg>
